<svg width="25" height="25" viewBox="0 0 25 25" fill="none" xmlns="http://www.w3.org/2000/svg">
<mask id="mask0_2667_6647" style="mask-type:alpha" maskUnits="userSpaceOnUse" x="0" y="0" width="25" height="25">
<rect width="25" height="25" fill="#D9D9D9"/>
</mask>
<g mask="url(#mask0_2667_6647)">
<path d="M7.61219 21.3576C7.09269 21.3576 6.64898 21.1736 6.28107 20.8057C5.91313 20.4378 5.72917 19.9941 5.72917 19.4746V6.25346H4.6875V4.69099H9.37497V3.76953H15.625V4.69099H20.3124V6.25346H19.2708V19.4746C19.2708 20.0008 19.0885 20.4461 18.7239 20.8107C18.3593 21.1753 17.9139 21.3576 17.3878 21.3576H7.61219ZM17.7083 6.25346H7.29164V19.4746C7.29164 19.5681 7.32169 19.6449 7.3818 19.705C7.4419 19.7651 7.5187 19.7951 7.61219 19.7951H17.3878C17.4679 19.7951 17.5414 19.7617 17.6082 19.695C17.6749 19.6282 17.7083 19.5547 17.7083 19.4746V6.25346ZM9.79568 17.7118H11.3582V8.3368H9.79568V17.7118ZM13.6418 17.7118H15.2043V8.3368H13.6418V17.7118Z" fill="#696A78"/>
</g>
</svg>
