<svg width="24" height="25" viewBox="0 0 24 25" fill="none" xmlns="http://www.w3.org/2000/svg">
<mask id="mask0_2413_1244" style="mask-type:alpha" maskUnits="userSpaceOnUse" x="0" y="0" width="24" height="25">
<rect y="0.5" width="24" height="24" fill="#D9D9D9"/>
</mask>
<g mask="url(#mask0_2413_1244)">
<path d="M12 19.7693C11.5875 19.7693 11.2344 19.6224 10.9406 19.3287C10.6469 19.035 10.5 18.6818 10.5 18.2694C10.5 17.8569 10.6469 17.5037 10.9406 17.21C11.2344 16.9163 11.5875 16.7694 12 16.7694C12.4125 16.7694 12.7656 16.9163 13.0593 17.21C13.3531 17.5037 13.5 17.8569 13.5 18.2694C13.5 18.6818 13.3531 19.035 13.0593 19.3287C12.7656 19.6224 12.4125 19.7693 12 19.7693ZM12 14.0001C11.5875 14.0001 11.2344 13.8532 10.9406 13.5595C10.6469 13.2657 10.5 12.9126 10.5 12.5001C10.5 12.0876 10.6469 11.7345 10.9406 11.4408C11.2344 11.147 11.5875 11.0002 12 11.0002C12.4125 11.0002 12.7656 11.147 13.0593 11.4408C13.3531 11.7345 13.5 12.0876 13.5 12.5001C13.5 12.9126 13.3531 13.2657 13.0593 13.5595C12.7656 13.8532 12.4125 14.0001 12 14.0001ZM12 8.23088C11.5875 8.23088 11.2344 8.08401 10.9406 7.79026C10.6469 7.49652 10.5 7.14341 10.5 6.73091C10.5 6.31842 10.6469 5.96531 10.9406 5.67156C11.2344 5.37782 11.5875 5.23096 12 5.23096C12.4125 5.23096 12.7656 5.37782 13.0593 5.67156C13.3531 5.96531 13.5 6.31842 13.5 6.73091C13.5 7.14341 13.3531 7.49652 13.0593 7.79026C12.7656 8.08401 12.4125 8.23088 12 8.23088Z" fill="#696A78"/>
</g>
</svg>
