<svg width="21" height="21" viewBox="0 0 21 21" fill="none" xmlns="http://www.w3.org/2000/svg">
<mask id="mask0_2289_1742" style="mask-type:alpha" maskUnits="userSpaceOnUse" x="0" y="0" width="21" height="21">
<rect x="0.5" y="0.5" width="20" height="20" fill="#D9D9D9"/>
</mask>
<g mask="url(#mask0_2289_1742)">
<path d="M2.16602 20.4996V17.1663H18.8327V20.4996H2.16602ZM3.83268 15.4996V12.3746L11.3743 4.83294L14.4993 7.95794L6.95768 15.4996H3.83268ZM5.49935 13.8329H6.24935L12.166 7.95794L11.3743 7.16627L5.49935 13.0829V13.8329ZM15.4368 7.04127L12.3118 3.91627L13.8118 2.41627C13.9646 2.2496 14.1591 2.16974 14.3952 2.17669C14.6313 2.18363 14.8257 2.26349 14.9785 2.41627L16.9368 4.3746C17.0896 4.52738 17.166 4.71835 17.166 4.94752C17.166 5.17669 17.0896 5.3746 16.9368 5.54127L15.4368 7.04127Z" fill="#ECEEEE"/>
</g>
</svg>
