<svg width="21" height="26" viewBox="0 0 21 26" fill="none" xmlns="http://www.w3.org/2000/svg">
<path d="M0.450103 14.978L14.8311 6.11767C15.1532 5.92026 15.5656 5.93916 15.8671 6.17227C17.2334 7.22442 18.4541 8.29128 19.2685 9.18802C19.2685 9.18802 19.9701 9.90626 20.2738 10.362C20.7641 10.9836 21 11.7964 21 12.586C21 13.4722 20.7415 14.3102 20.2266 14.9801C20.1096 15.0998 19.6645 15.6269 19.2439 16.0575C16.7903 18.7372 10.3855 23.1642 7.01696 24.5062C6.52665 24.7225 5.21779 25.174 4.53875 25.1992C3.88432 25.1992 3.25245 25.0564 2.64521 24.7435C1.89846 24.313 1.31378 23.6451 0.985545 22.8534C0.77424 22.3032 0.448051 20.6525 0.448051 20.6042C0.236746 19.426 0.0787807 17.7711 0.000823598 15.8391C-0.0135369 15.4925 0.160841 15.1565 0.450103 14.978Z" fill="#32725E"/>
<path opacity="0.4" d="M1.41486 10.2067C0.780943 10.5994 -0.0170918 10.0975 0.0136808 9.34356C0.0895863 7.57527 0.220882 6.01699 0.3809 4.85774C0.405518 4.83253 0.731707 2.77653 1.10713 2.0814C1.76156 0.789832 3.0458 0.000191689 4.42646 0.000191689H4.54135C5.4317 0.0232925 7.32523 0.812933 7.32523 0.861236C8.27918 1.25815 9.52444 1.93019 10.8641 2.73873C11.4672 3.10415 11.4816 4.00089 10.8784 4.37261L1.41486 10.2067Z" fill="#32725E"/>
</svg>
