<svg width="80" height="80" viewBox="0 0 80 80" fill="none" xmlns="http://www.w3.org/2000/svg">
<path fill-rule="evenodd" clip-rule="evenodd" d="M36.7201 0.210707C34.1587 0.671069 31.4786 1.78974 29.3759 3.27616C27.183 4.82619 24.771 7.66182 23.5014 10.1826C22.1964 12.7735 21.4021 15.6779 20.8883 19.7376C20.8411 20.11 20.7123 20.5052 20.6019 20.6158C20.4894 20.7286 19.9447 20.8595 19.3626 20.9138C13.1424 21.4942 8.49416 23.3075 5.20867 26.4355C3.72557 27.8474 2.83714 29.0607 1.92261 30.9232C0.56144 33.6952 0.00142812 36.302 2.06521e-06 39.873C-0.00213702 45.1518 1.65736 49.2419 5.27199 52.8666C8.69209 56.2965 13.1368 58.284 18.9995 59.0052C19.6848 59.0895 20.3431 59.196 20.4625 59.2419C20.7344 59.3465 20.7692 59.5056 21.0338 61.8546C22.2205 72.3919 27.4499 78.4959 36.4245 79.8197C38.537 80.1312 42.5807 80.0246 44.3495 79.6109C47.6689 78.8344 50.2284 77.4787 52.5703 75.2569C56.1179 71.8913 58.285 67.1822 58.9641 61.3632C59.0822 60.3517 59.2345 59.4683 59.3024 59.4003C59.3704 59.3321 59.9002 59.214 60.4797 59.138C65.0385 58.5396 66.6381 58.1895 68.9489 57.2847C76.1971 54.4465 80.0043 48.5012 80 40.0273C79.9957 31.3675 74.9877 24.7394 66.4378 22.0772C64.6104 21.5084 63.2427 21.2213 60.986 20.9331C60.1358 20.8245 59.3812 20.6766 59.3091 20.6043C59.2368 20.5318 59.0782 19.6082 58.9564 18.5517C57.716 7.78574 52.4687 1.55392 43.4938 0.18784C41.7859 -0.0721408 38.2264 -0.0601357 36.7201 0.210707ZM37.8609 4.28793C35.7214 4.56035 33.7125 5.30384 31.9586 6.47254C30.854 7.20846 28.9735 9.11694 28.2164 10.2705C26.326 13.1506 25.2475 16.7054 24.9588 21.0074C24.402 29.3084 27.6106 35.3032 34.7762 39.3499C35.959 40.0178 39.1944 41.5165 42.1861 42.7821C45.0511 43.9941 47.5578 45.6892 49.0314 47.4113C50.9833 49.6921 52.0549 52.0007 52.5561 55.0052C52.8816 56.956 52.7766 60.6982 52.3385 62.7653C51.5327 66.5681 49.8994 69.4886 47.6067 71.2266C45.1103 73.1191 41.8898 73.9463 38.3858 73.5951C34.9727 73.2531 33.0393 72.419 31.0638 70.4358C30.0016 69.3696 29.7271 68.9872 29.1074 67.7106C28.2155 65.8735 27.7403 64.1317 27.3874 61.4051C27.2375 60.2472 27.0744 59.2343 27.0248 59.154C26.9062 58.9616 26.1112 58.9676 25.5459 59.1651C24.9567 59.3711 24.8962 59.6694 25.0969 61.3861C26.2222 71.0201 31.147 75.8887 39.7861 75.9072C44.8536 75.9183 48.5001 74.1901 51.3187 70.4419C52.8097 68.4593 53.8501 66.0337 54.4762 63.0813C54.918 60.9974 55.0316 56.6012 54.6964 54.5614C53.9008 49.7199 51.408 45.8332 47.357 43.1177C45.5954 41.9367 43.9901 41.114 40.713 39.713C36.1258 37.7521 34.2738 36.6633 32.1711 34.6917C28.7143 31.4503 27.19 27.8017 27.1929 22.7764C27.1962 17 28.8741 12.3952 32.0754 9.37692C34.235 7.34081 36.7794 6.37264 40 6.36163C46.6168 6.33905 50.6502 9.62975 52.127 16.255C52.3133 17.0904 52.5329 18.4432 52.615 19.2609C52.6973 20.0787 52.8364 20.8345 52.9239 20.9403C53.1184 21.1752 53.4861 21.1841 54.1952 20.9711C54.8713 20.7682 54.9334 20.5118 54.7437 18.7031C54.4191 15.6085 53.4423 12.3732 52.1858 10.2315C51.4589 8.99231 49.3405 6.84014 48.1649 6.14638C45.445 4.54134 41.4832 3.82685 37.8609 4.28793ZM37.6613 10.8402C37.0809 10.9974 36.3108 11.2984 35.95 11.5091C33.5363 12.9186 31.8073 16.4513 31.3605 20.887C30.8921 25.5387 32.0813 28.9985 35.0971 31.7571C36.2228 32.7869 37.195 33.3762 37.5455 33.2414C37.6707 33.1932 38.0765 32.6267 38.4472 31.9825C39.4494 30.2411 40.6715 28.6584 42.2004 27.1218C43.7859 25.5283 45.1733 24.4575 47.0638 23.3684L48.4137 22.5906L48.4568 21.3972C48.5351 19.2316 48.007 16.3873 47.1923 14.5864C46.3539 12.7331 45.1653 11.5934 43.4225 10.9717C42.1431 10.5152 39.1164 10.4461 37.6613 10.8402ZM55.1354 25.154C51.2621 25.6525 47.7901 27.3473 45.1764 30.0156C44.0618 31.1536 42.0651 33.9799 41.7637 34.8463C41.6133 35.2787 41.6291 35.3451 41.9402 35.5862C42.128 35.7319 42.5063 35.9167 42.7808 35.9967C43.2376 36.1299 43.3072 36.1089 43.6011 35.748C43.7778 35.5312 44.1504 34.9641 44.4293 34.4879C45.9475 31.8951 48.5542 29.6298 51.4521 28.3848C54.8692 26.9168 59.7282 26.7723 64.3142 28.0025C65.8481 28.4138 68.3487 29.6844 69.4847 30.6297C71.4385 32.2554 72.7974 34.5379 73.3178 37.0689C73.7064 38.9583 73.6344 42.3096 73.1675 44.0723C72.6414 46.0585 71.8395 47.4757 70.4511 48.8733C69.4031 49.9282 69.0204 50.2049 67.7354 50.837C65.8744 51.7523 64.3441 52.1927 61.9613 52.4983C60.9416 52.629 59.8507 52.7815 59.537 52.8371L58.9665 52.9383L58.9692 53.7391C58.9734 54.9536 59.122 55.0622 60.6236 54.9487C63.5567 54.7268 66.4928 53.9775 68.6637 52.8969C71.1502 51.6592 73.1639 49.6894 74.3003 47.3828C75.3649 45.2224 75.7332 43.6075 75.8219 40.7135C75.8847 38.665 75.8535 38.1582 75.5846 36.8545C75.0214 34.1228 74.0573 32.2098 72.3322 30.4001C70.0979 28.0561 67.585 26.6248 64.1838 25.7587C61.5473 25.0872 57.6678 24.828 55.1354 25.154ZM17.5666 25.3594C12.3556 26.1202 8.56289 28.1927 6.42253 31.4488C4.83533 33.8637 4.21528 36.2793 4.22826 39.9989C4.23539 42.0785 4.28102 42.526 4.61386 43.7851C6.35964 50.3888 11.9104 54.2693 20.677 55.0143C25.7748 55.4475 30.4165 54.287 33.7985 51.7333C35.613 50.3633 38.4427 47.1081 38.5364 46.283C38.5635 46.0442 38.4392 45.8597 38.0894 45.6197C37.2299 45.0299 36.9373 45.1405 35.8502 46.4663C31.8384 51.3589 27.2639 53.2814 20.9184 52.741C16.9028 52.3989 13.7954 51.3959 11.3363 49.6475C10.2311 48.8617 8.47391 46.9969 7.8617 45.9602C5.87507 42.5957 5.8243 37.3432 7.74277 33.6426C8.51911 32.1455 10.0022 30.5806 11.5088 29.6694C13.4344 28.5049 16.4109 27.6107 19.2509 27.3439C20.7595 27.202 20.9622 27.1042 20.9622 26.5174C20.9622 26.2519 20.8917 25.8323 20.8056 25.5848C20.652 25.1431 20.6327 25.135 19.7717 25.15C19.2891 25.1586 18.2969 25.2526 17.5666 25.3594ZM19.6787 31.5227C16.5333 31.8603 13.909 32.8058 12.5306 34.0981C11.0859 35.4524 10.4526 37.496 10.5919 40.3535C10.7516 43.6291 12.0758 45.627 15.0542 47.0864C18.074 48.5663 22.929 49.1261 26.096 48.3597C27.7512 47.9593 29.4881 46.9998 30.8082 45.7569C32.0055 44.6297 32.7984 43.6726 32.7984 43.3548C32.7984 43.259 31.9802 42.6299 30.9802 41.957C27.2381 39.4386 24.9503 36.9213 23.0108 33.188C22.5679 32.3354 22.1344 31.5905 22.0474 31.5327C21.8888 31.4275 20.6155 31.4221 19.6787 31.5227ZM55.1875 31.6273C52.3683 32.2258 50.2164 33.6357 48.6452 35.9135C48.2375 36.5047 47.8128 37.2069 47.7014 37.474C47.4568 38.0606 47.4785 38.0847 49.4368 39.4135C52.5624 41.5342 55.1536 44.3635 56.7606 47.4103C57.4803 48.7749 57.5587 48.8052 59.8266 48.6C64.4728 48.1794 67.4855 46.7407 68.6269 44.3974C69.243 43.1327 69.4532 42.0965 69.4624 40.278C69.476 37.6241 68.8795 35.9264 67.4065 34.4257C66.0683 33.0625 64.7151 32.3527 62.4604 31.8319C60.8499 31.4598 56.5471 31.3388 55.1875 31.6273ZM42.4765 48.3957C42.2798 48.6118 41.7384 49.3353 41.2733 50.0032C40.1376 51.6346 37.4589 54.2991 35.8644 55.3835C35.1585 55.8636 33.8591 56.6188 32.9767 57.0617C31.1917 57.9576 31.2986 57.7959 31.3588 59.5082C31.3754 59.9798 31.4887 60.9767 31.6105 61.7235C32.3143 66.0351 33.8827 68.2678 36.8567 69.1915C38.2055 69.6105 41.135 69.6398 42.4182 69.2474C44.2883 68.6752 45.6654 67.6407 46.7763 65.9734C48.5402 63.3261 49.1316 57.359 47.9749 53.8798C47.2504 51.7 45.7985 49.8014 43.9316 48.5921C43.4312 48.268 42.9796 48.0027 42.928 48.0027C42.8764 48.0027 42.6733 48.1796 42.4765 48.3957Z" fill="#EEEEEE"/>
</svg>
