<svg width="26" height="30" viewBox="0 0 26 30" fill="none" xmlns="http://www.w3.org/2000/svg">
<path d="M24.3299 14.4826C23.2646 13.2386 22.7805 12.1605 22.7805 10.329V9.70628C22.7805 7.31958 22.2312 5.78181 21.0369 4.24404C19.1962 1.85587 16.0974 0.416504 13.0638 0.416504H12.9349C9.96507 0.416504 6.9634 1.78977 5.0908 4.08101C3.83129 5.64962 3.2182 7.25348 3.2182 9.70628V10.329C3.2182 12.1605 2.76599 13.2386 1.66881 14.4826C0.861506 15.3991 0.603516 16.577 0.603516 17.8519C0.603516 19.1282 1.02239 20.337 1.86303 21.3196C2.96021 22.4975 4.5096 23.2495 6.09232 23.3802C8.38379 23.6417 10.6753 23.7401 13.0001 23.7401C15.3234 23.7401 17.6149 23.5756 19.9078 23.3802C21.4891 23.2495 23.0385 22.4975 24.1357 21.3196C24.9749 20.337 25.3952 19.1282 25.3952 17.8519C25.3952 16.577 25.1372 15.3991 24.3299 14.4826Z" fill="#8A92A6"/>
<path opacity="0.4" d="M15.9281 25.5411C15.1991 25.3854 10.7567 25.3854 10.0277 25.5411C9.40443 25.685 8.73047 26.0199 8.73047 26.7543C8.7667 27.4548 9.17688 28.0732 9.74504 28.4653L9.74359 28.4668C10.4784 29.0396 11.3408 29.4039 12.2438 29.5346C12.725 29.6007 13.2149 29.5977 13.7134 29.5346C14.615 29.4039 15.4773 29.0396 16.2122 28.4668L16.2107 28.4653C16.7789 28.0732 17.1891 27.4548 17.2253 26.7543C17.2253 26.0199 16.5513 25.685 15.9281 25.5411Z" fill="#8A92A6"/>
</svg>
