<svg width="50" height="50" viewBox="0 0 50 50" fill="none" xmlns="http://www.w3.org/2000/svg">
<circle cx="25" cy="25" r="25" fill="#ACEEDA"/>
<path opacity="0.4" d="M30.208 13H19.804C15.736 13 13 15.856 13 20.104V29.908C13 34.144 15.736 37 19.804 37H30.208C34.276 37 37 34.144 37 29.908V20.104C37 15.856 34.276 13 30.208 13Z" fill="#32725E"/>
<path d="M28.6183 27.1246L26.4835 24.991L28.6171 22.8574C29.0275 22.4482 29.0275 21.7822 28.6171 21.373C28.2067 20.9602 27.5431 20.9614 27.1327 21.3718L24.9979 23.5054L22.8631 21.3694C22.4527 20.959 21.7879 20.9614 21.3775 21.3694C20.9683 21.7798 20.9683 22.4458 21.3775 22.855L23.5135 24.991L21.3823 27.121C20.9719 27.5314 20.9719 28.1974 21.3823 28.6054C21.5875 28.8118 21.8551 28.9138 22.1239 28.9138C22.3939 28.9138 22.6615 28.8118 22.8667 28.6066L24.9979 26.4754L27.1339 28.6102C27.3391 28.8154 27.6067 28.9174 27.8755 28.9174C28.1443 28.9174 28.4131 28.8142 28.6183 28.6102C29.0287 28.1998 29.0287 27.535 28.6183 27.1246Z" fill="#32725E"/>
</svg>
