<svg width="28" height="28" viewBox="0 0 28 28" fill="none" xmlns="http://www.w3.org/2000/svg">
<mask id="mask0_2376_1876" style="mask-type:alpha" maskUnits="userSpaceOnUse" x="0" y="0" width="28" height="28">
<rect width="28" height="28" fill="#D9D9D9"/>
</mask>
<g mask="url(#mask0_2376_1876)">
<path d="M8.16661 15.8852C7.6446 15.8852 7.20001 15.7016 6.83282 15.3344C6.46563 14.9672 6.28203 14.5226 6.28203 14.0006C6.28203 13.4786 6.46563 13.034 6.83282 12.6668C7.20001 12.2996 7.6446 12.116 8.16661 12.116C8.68861 12.116 9.13321 12.2996 9.5004 12.6668C9.86759 13.034 10.0512 13.4786 10.0512 14.0006C10.0512 14.5226 9.86759 14.9672 9.5004 15.3344C9.13321 15.7016 8.68861 15.8852 8.16661 15.8852ZM8.16661 20.4173C6.3867 20.4173 4.87229 19.7928 3.62337 18.5439C2.37446 17.2949 1.75 15.7805 1.75 14.0006C1.75 12.2207 2.37446 10.7063 3.62337 9.45739C4.87229 8.20845 6.3867 7.58398 8.16661 7.58398C9.41702 7.58398 10.5478 7.90669 11.5589 8.55211C12.57 9.19751 13.3418 10.0415 13.8743 11.084H24.3765L27.2931 14.0006L22.806 18.4653L20.641 16.8387L18.4198 18.4877L16.1426 16.9173H13.8743C13.3418 17.9523 12.57 18.7944 11.5589 19.4435C10.5478 20.0927 9.41702 20.4173 8.16661 20.4173ZM8.16661 18.6673C9.28542 18.6673 10.2543 18.3293 11.0732 17.6532C11.8921 16.9771 12.4264 16.1485 12.6762 15.1673H16.6923L18.3727 16.3295L20.6522 14.6625L22.6333 16.1769L24.8096 14.0006L23.6429 12.834H12.6762C12.4264 11.8528 11.8921 11.0241 11.0732 10.3481C10.2543 9.67199 9.28542 9.33396 8.16661 9.33396C6.88327 9.33396 5.78466 9.7909 4.87077 10.7048C3.95689 11.6187 3.49994 12.7173 3.49994 14.0006C3.49994 15.284 3.95689 16.3826 4.87077 17.2965C5.78466 18.2103 6.88327 18.6673 8.16661 18.6673Z" fill="#696A78"/>
</g>
</svg>
