<svg width="25" height="25" viewBox="0 0 25 25" fill="none" xmlns="http://www.w3.org/2000/svg">
<path opacity="0.4" d="M17.3299 0H6.8522C2.75538 0 0 2.87623 0 7.15432V17.0278C0 21.2938 2.75538 24.17 6.8522 24.17H17.3299C21.4267 24.17 24.17 21.2938 24.17 17.0278V7.15432C24.17 2.87623 21.4267 0 17.3299 0Z" fill="#32725E"/>
<path d="M16.4036 16.6935C16.2453 16.6935 16.0857 16.6524 15.9395 16.5666L11.1949 13.7363C10.9218 13.572 10.7538 13.2759 10.7538 12.9568V6.85755C10.7538 6.35723 11.1599 5.95117 11.6602 5.95117C12.1605 5.95117 12.5666 6.35723 12.5666 6.85755V12.442L16.8689 15.0077C17.2979 15.2651 17.4393 15.821 17.1831 16.2512C17.0127 16.5352 16.7118 16.6935 16.4036 16.6935Z" fill="#32725E"/>
</svg>
