<svg width="26" height="25" viewBox="0 0 26 25" fill="none" xmlns="http://www.w3.org/2000/svg">
<path opacity="0.4" d="M6.79106 20.7227C7.82899 20.7227 8.67935 21.573 8.67935 22.6235C8.67935 23.6614 7.82899 24.5118 6.79106 24.5118C5.74062 24.5118 4.89026 23.6614 4.89026 22.6235C4.89026 21.573 5.74062 20.7227 6.79106 20.7227ZM20.8595 20.7227C21.8974 20.7227 22.7478 21.573 22.7478 22.6235C22.7478 23.6614 21.8974 24.5118 20.8595 24.5118C19.809 24.5118 18.9587 23.6614 18.9587 22.6235C18.9587 21.573 19.809 20.7227 20.8595 20.7227Z" fill="#32725E"/>
<path d="M1.10139 0.0104175L4.08389 0.460607C4.50907 0.536889 4.8217 0.885786 4.85922 1.31096L5.09682 4.11214C5.13434 4.51356 5.45947 4.81369 5.85964 4.81369H22.748C23.5108 4.81369 24.011 5.0763 24.5112 5.65154C25.0114 6.22678 25.099 7.05213 24.9864 7.80119L23.7984 16.0046C23.5733 17.5816 22.2228 18.7433 20.6346 18.7433H6.99137C5.32817 18.7433 3.95259 17.4678 3.81503 15.8183L2.66455 2.18633L0.776254 1.8612C0.276044 1.77366 -0.0741035 1.28595 0.0134333 0.785744C0.10097 0.273028 0.588675 -0.0646141 1.10139 0.0104175ZM18.6338 9.43938H15.1698C14.6446 9.43938 14.2319 9.85206 14.2319 10.3773C14.2319 10.89 14.6446 11.3152 15.1698 11.3152H18.6338C19.159 11.3152 19.5717 10.89 19.5717 10.3773C19.5717 9.85206 19.159 9.43938 18.6338 9.43938Z" fill="#32725E"/>
</svg>
