<svg width="25" height="25" viewBox="0 0 25 25" fill="none" xmlns="http://www.w3.org/2000/svg">
<mask id="mask0_2829_2141" style="mask-type:alpha" maskUnits="userSpaceOnUse" x="0" y="0" width="25" height="25">
<rect x="0.5" y="0.5" width="24" height="24" fill="#D9D9D9"/>
</mask>
<g mask="url(#mask0_2829_2141)">
<path d="M7 11.5L12.5 2.5L18 11.5H7ZM18 22.5C16.75 22.5 15.6875 22.0625 14.8125 21.1875C13.9375 20.3125 13.5 19.25 13.5 18C13.5 16.75 13.9375 15.6875 14.8125 14.8125C15.6875 13.9375 16.75 13.5 18 13.5C19.25 13.5 20.3125 13.9375 21.1875 14.8125C22.0625 15.6875 22.5 16.75 22.5 18C22.5 19.25 22.0625 20.3125 21.1875 21.1875C20.3125 22.0625 19.25 22.5 18 22.5ZM3.5 22V14H11.5V22H3.5ZM18 20.5C18.7 20.5 19.2917 20.2583 19.775 19.775C20.2583 19.2917 20.5 18.7 20.5 18C20.5 17.3 20.2583 16.7083 19.775 16.225C19.2917 15.7417 18.7 15.5 18 15.5C17.3 15.5 16.7083 15.7417 16.225 16.225C15.7417 16.7083 15.5 17.3 15.5 18C15.5 18.7 15.7417 19.2917 16.225 19.775C16.7083 20.2583 17.3 20.5 18 20.5ZM5.5 20H9.5V16H5.5V20ZM10.55 9.5H14.45L12.5 6.35L10.55 9.5Z" fill="#ECEEEE"/>
</g>
</svg>
