<svg width="60" height="60" viewBox="0 0 60 60" fill="none" xmlns="http://www.w3.org/2000/svg">
<g clip-path="url(#clip0_3829_1286)">
<rect width="60" height="60" rx="30" fill="#EC9252"/>
<path d="M30 34.1673C36.4433 34.1673 41.6666 28.944 41.6666 22.5007C41.6666 16.0573 36.4433 10.834 30 10.834C23.5567 10.834 18.3333 16.0573 18.3333 22.5007C18.3333 28.944 23.5567 34.1673 30 34.1673Z" fill="#ECEEEE"/>
<path opacity="0.5" d="M53.3334 56.041C53.3334 63.2898 53.3334 69.166 30 69.166C6.66669 69.166 6.66669 63.2898 6.66669 56.041C6.66669 48.7922 17.1134 42.916 30 42.916C42.8867 42.916 53.3334 48.7922 53.3334 56.041Z" fill="#ECEEEE"/>
</g>
<defs>
<clipPath id="clip0_3829_1286">
<rect width="60" height="60" rx="30" fill="white"/>
</clipPath>
</defs>
</svg>
