<svg width="60" height="60" viewBox="0 0 60 60" fill="none" xmlns="http://www.w3.org/2000/svg">
<g clip-path="url(#clip0_3829_1267)">
<rect width="60" height="60" rx="30" fill="#32725E"/>
<path d="M29.9999 34.1663C36.4432 34.1663 41.6666 28.943 41.6666 22.4997C41.6666 16.0564 36.4432 10.833 29.9999 10.833C23.5566 10.833 18.3333 16.0564 18.3333 22.4997C18.3333 28.943 23.5566 34.1663 29.9999 34.1663Z" fill="#ECEEEE"/>
<path opacity="0.5" d="M53.3334 56.042C53.3334 63.2908 53.3334 69.167 30.0001 69.167C6.66675 69.167 6.66675 63.2908 6.66675 56.042C6.66675 48.7932 17.1134 42.917 30.0001 42.917C42.8868 42.917 53.3334 48.7932 53.3334 56.042Z" fill="#ECEEEE"/>
</g>
<defs>
<clipPath id="clip0_3829_1267">
<rect width="60" height="60" rx="30" fill="white"/>
</clipPath>
</defs>
</svg>
