<svg width="26" height="24" viewBox="0 0 26 24" fill="none" xmlns="http://www.w3.org/2000/svg">
<path d="M15.1385 22.6982L24.551 13.3282C25.2585 12.6232 25.2585 11.3757 24.551 10.6682L15.1385 1.2982C14.4035 0.568201 13.216 0.5707 12.486 1.3057C11.756 2.0407 11.756 3.2257 12.491 3.9582L18.6835 10.1257L2.79602 10.1257C1.75852 10.1257 0.921021 10.9657 0.921021 12.0007C0.921021 13.0357 1.75852 13.8757 2.79602 13.8757L18.6835 13.8757L12.491 20.0407C12.1235 20.4082 11.941 20.8882 11.941 21.3707C11.941 21.8482 12.1235 22.3282 12.486 22.6932C13.216 23.4257 14.4035 23.4282 15.1385 22.6982Z" fill="#32725E"/>
</svg>
