<svg width="184" height="37" viewBox="0 0 184 37" fill="none" xmlns="http://www.w3.org/2000/svg">
<path d="M42.3047 14.3672C42.7474 14.6172 43.1953 14.8438 43.6484 15.0469C44.1068 15.2448 44.5807 15.4141 45.0703 15.5547C45.5599 15.6901 46.0729 15.7943 46.6094 15.8672C47.151 15.9401 47.7266 15.9766 48.3359 15.9766C49.0703 15.9766 49.6953 15.9297 50.2109 15.8359C50.7266 15.737 51.1458 15.6042 51.4688 15.4375C51.7969 15.2656 52.0339 15.0625 52.1797 14.8281C52.3307 14.5938 52.4062 14.3385 52.4062 14.0625C52.4062 13.6198 52.2214 13.2708 51.8516 13.0156C51.4818 12.7552 50.9115 12.625 50.1406 12.625C49.8021 12.625 49.4453 12.6484 49.0703 12.6953C48.6953 12.737 48.3151 12.7839 47.9297 12.8359C47.5495 12.888 47.1719 12.9375 46.7969 12.9844C46.4271 13.026 46.0781 13.0469 45.75 13.0469C45.2031 13.0469 44.6771 12.9766 44.1719 12.8359C43.6719 12.6953 43.2266 12.4844 42.8359 12.2031C42.4505 11.9219 42.1432 11.5703 41.9141 11.1484C41.6849 10.7266 41.5703 10.2344 41.5703 9.67188C41.5703 9.33854 41.6146 9.00781 41.7031 8.67969C41.7969 8.35156 41.9427 8.03906 42.1406 7.74219C42.3438 7.4401 42.6042 7.16146 42.9219 6.90625C43.2396 6.64583 43.6224 6.42188 44.0703 6.23438C44.5234 6.04688 45.0443 5.90104 45.6328 5.79688C46.2266 5.6875 46.901 5.63281 47.6562 5.63281C48.2031 5.63281 48.7526 5.66406 49.3047 5.72656C49.8568 5.78385 50.3932 5.86719 50.9141 5.97656C51.4401 6.08594 51.9453 6.21875 52.4297 6.375C52.9141 6.52604 53.3646 6.69531 53.7812 6.88281L52.6953 8.88281C52.3516 8.73177 51.9818 8.59375 51.5859 8.46875C51.1901 8.33854 50.776 8.22656 50.3438 8.13281C49.9115 8.03906 49.4635 7.96615 49 7.91406C48.5417 7.85677 48.0729 7.82812 47.5938 7.82812C46.9115 7.82812 46.349 7.8776 45.9062 7.97656C45.4688 8.07552 45.1198 8.20312 44.8594 8.35938C44.599 8.51042 44.4167 8.68229 44.3125 8.875C44.2135 9.0625 44.1641 9.25 44.1641 9.4375C44.1641 9.80208 44.3281 10.1016 44.6562 10.3359C44.9844 10.5651 45.4844 10.6797 46.1562 10.6797C46.4271 10.6797 46.737 10.6615 47.0859 10.625C47.4401 10.5833 47.8099 10.5391 48.1953 10.4922C48.5859 10.4453 48.9818 10.4036 49.3828 10.3672C49.7891 10.3255 50.1823 10.3047 50.5625 10.3047C51.2812 10.3047 51.9167 10.3854 52.4688 10.5469C53.026 10.7083 53.4922 10.9401 53.8672 11.2422C54.2422 11.5391 54.526 11.901 54.7188 12.3281C54.9115 12.75 55.0078 13.224 55.0078 13.75C55.0078 14.4531 54.8438 15.0807 54.5156 15.6328C54.1927 16.1797 53.7292 16.6432 53.125 17.0234C52.526 17.3984 51.8021 17.6849 50.9531 17.8828C50.1042 18.0755 49.1589 18.1719 48.1172 18.1719C47.4297 18.1719 46.7578 18.1276 46.1016 18.0391C45.4453 17.9557 44.8151 17.8359 44.2109 17.6797C43.612 17.5182 43.0391 17.3281 42.4922 17.1094C41.9505 16.8854 41.4479 16.6406 40.9844 16.375L42.3047 14.3672ZM57.7266 5.78906H60.2031V8.97656H67.7969V5.78906H70.2812V18H67.7969V11.0938H60.2031V18H57.7266V5.78906ZM73.0312 11.8594C73.0312 10.9375 73.2005 10.0938 73.5391 9.32812C73.8776 8.5625 74.3516 7.90625 74.9609 7.35938C75.5755 6.80729 76.3099 6.38021 77.1641 6.07812C78.0234 5.77604 78.974 5.625 80.0156 5.625C81.0521 5.625 82 5.77604 82.8594 6.07812C83.7188 6.38021 84.4531 6.80729 85.0625 7.35938C85.6771 7.90625 86.1536 8.5625 86.4922 9.32812C86.8307 10.0938 87 10.9375 87 11.8594C87 12.7865 86.8307 13.638 86.4922 14.4141C86.1536 15.1849 85.6771 15.849 85.0625 16.4062C84.4531 16.9635 83.7188 17.3984 82.8594 17.7109C82 18.0182 81.0521 18.1719 80.0156 18.1719C78.974 18.1719 78.0234 18.0182 77.1641 17.7109C76.3099 17.3984 75.5755 16.9635 74.9609 16.4062C74.3516 15.849 73.8776 15.1849 73.5391 14.4141C73.2005 13.638 73.0312 12.7865 73.0312 11.8594ZM75.5078 11.8594C75.5078 12.4896 75.6198 13.0573 75.8438 13.5625C76.0729 14.0677 76.388 14.5 76.7891 14.8594C77.1953 15.2135 77.6719 15.487 78.2188 15.6797C78.7708 15.8724 79.3698 15.9688 80.0156 15.9688C80.6615 15.9688 81.2578 15.8724 81.8047 15.6797C82.3568 15.487 82.8333 15.2135 83.2344 14.8594C83.6354 14.5 83.9505 14.0677 84.1797 13.5625C84.4089 13.0573 84.5234 12.4896 84.5234 11.8594C84.5234 11.2292 84.4089 10.6641 84.1797 10.1641C83.9505 9.66406 83.6354 9.24219 83.2344 8.89844C82.8333 8.54948 82.3568 8.28385 81.8047 8.10156C81.2578 7.91927 80.6615 7.82812 80.0156 7.82812C79.3698 7.82812 78.7708 7.91927 78.2188 8.10156C77.6719 8.28385 77.1953 8.54948 76.7891 8.89844C76.388 9.24219 76.0729 9.66406 75.8438 10.1641C75.6198 10.6641 75.5078 11.2292 75.5078 11.8594ZM89.75 5.78906H96.2734C97.0703 5.78906 97.763 5.875 98.3516 6.04688C98.9453 6.21354 99.4375 6.44531 99.8281 6.74219C100.219 7.03906 100.508 7.39323 100.695 7.80469C100.888 8.21094 100.984 8.65104 100.984 9.125C100.984 9.90104 100.74 10.5807 100.25 11.1641C100.812 11.4974 101.232 11.9297 101.508 12.4609C101.784 12.9922 101.922 13.5964 101.922 14.2734C101.922 14.8411 101.826 15.3542 101.633 15.8125C101.445 16.2708 101.156 16.6641 100.766 16.9922C100.38 17.3151 99.8906 17.5651 99.2969 17.7422C98.7083 17.9141 98.013 18 97.2109 18H89.75V5.78906ZM97.2266 10.4766C97.4401 10.4766 97.6484 10.4844 97.8516 10.5C98.2005 10.1667 98.375 9.78646 98.375 9.35938C98.375 8.91667 98.2005 8.57552 97.8516 8.33594C97.5078 8.09115 97.0026 7.96875 96.3359 7.96875H92.2266V10.4766H97.2266ZM97.2734 15.8438C97.9401 15.8438 98.4453 15.7005 98.7891 15.4141C99.138 15.1276 99.3125 14.724 99.3125 14.2031C99.3125 13.6823 99.138 13.276 98.7891 12.9844C98.4453 12.6927 97.9401 12.5469 97.2734 12.5469H92.2266V15.8438H97.2734ZM104.43 5.78906H106.906V8.97656H114.5V5.78906H116.984V18H114.5V11.0938H106.906V18H104.43V5.78906ZM124.617 5.78906H127.242L133.148 18H130.547L129.57 15.9453H122.438L121.492 18H118.883L124.617 5.78906ZM128.594 13.9062L125.953 8.35938L123.383 13.9062H128.594Z" fill="#121329"/>
<path d="M40.5615 27.1133C40.5615 26.5762 40.6624 26.0749 40.8643 25.6094C41.0661 25.1406 41.3607 24.7337 41.748 24.3887C42.1354 24.0436 42.6107 23.7718 43.1738 23.5732C43.7402 23.3747 44.388 23.2754 45.1172 23.2754C45.3809 23.2754 45.6445 23.29 45.9082 23.3193C46.1751 23.3454 46.4372 23.3877 46.6943 23.4463C46.9548 23.5049 47.207 23.5798 47.4512 23.6709C47.6986 23.7588 47.9329 23.8646 48.1543 23.9883L47.4414 25.1602C47.3079 25.082 47.1566 25.012 46.9873 24.9502C46.818 24.8851 46.6357 24.8314 46.4404 24.7891C46.2484 24.7435 46.0482 24.7093 45.8398 24.6865C45.6348 24.6637 45.4281 24.6523 45.2197 24.6523C44.738 24.6523 44.3083 24.7142 43.9307 24.8379C43.5531 24.9583 43.234 25.1292 42.9736 25.3506C42.7132 25.5687 42.5146 25.8307 42.3779 26.1367C42.2412 26.4427 42.1729 26.778 42.1729 27.1426C42.1729 27.5202 42.2445 27.8669 42.3877 28.1826C42.5309 28.4984 42.7344 28.7702 42.998 28.998C43.2617 29.2259 43.5807 29.4049 43.9551 29.5352C44.3294 29.6621 44.7477 29.7256 45.21 29.7256C45.5778 29.7256 45.9147 29.6849 46.2207 29.6035C46.5267 29.5189 46.7936 29.4001 47.0215 29.2471C47.2493 29.0941 47.4349 28.9102 47.5781 28.6953C47.7214 28.4772 47.8158 28.2331 47.8613 27.9629H45.1953V26.6885H49.2529V26.6934L49.2578 26.6885C49.3392 27.0791 49.3636 27.46 49.3311 27.8311C49.3018 28.1989 49.2171 28.5472 49.0771 28.876C48.9404 29.2015 48.7516 29.501 48.5107 29.7744C48.2699 30.0479 47.9818 30.2839 47.6465 30.4824C47.3112 30.6777 46.9303 30.8307 46.5039 30.9414C46.0775 31.0488 45.6104 31.1025 45.1025 31.1025C44.3929 31.1025 43.7565 30.9984 43.1934 30.79C42.6335 30.5817 42.1582 30.2969 41.7676 29.9355C41.377 29.5742 41.0775 29.151 40.8691 28.666C40.6641 28.181 40.5615 27.6634 40.5615 27.1133ZM50.6348 27.1621C50.6348 26.5859 50.7406 26.0586 50.9521 25.5801C51.1637 25.1016 51.46 24.6914 51.8408 24.3496C52.2249 24.0046 52.6839 23.7376 53.2178 23.5488C53.7549 23.36 54.349 23.2656 55 23.2656C55.6478 23.2656 56.2402 23.36 56.7773 23.5488C57.3145 23.7376 57.7734 24.0046 58.1543 24.3496C58.5384 24.6914 58.8363 25.1016 59.0479 25.5801C59.2594 26.0586 59.3652 26.5859 59.3652 27.1621C59.3652 27.7415 59.2594 28.2738 59.0479 28.7588C58.8363 29.2406 58.5384 29.6556 58.1543 30.0039C57.7734 30.3522 57.3145 30.624 56.7773 30.8193C56.2402 31.0114 55.6478 31.1074 55 31.1074C54.349 31.1074 53.7549 31.0114 53.2178 30.8193C52.6839 30.624 52.2249 30.3522 51.8408 30.0039C51.46 29.6556 51.1637 29.2406 50.9521 28.7588C50.7406 28.2738 50.6348 27.7415 50.6348 27.1621ZM52.1826 27.1621C52.1826 27.556 52.2526 27.9108 52.3926 28.2266C52.5358 28.5423 52.7327 28.8125 52.9834 29.0371C53.2373 29.2585 53.5352 29.4294 53.877 29.5498C54.222 29.6702 54.5964 29.7305 55 29.7305C55.4036 29.7305 55.7764 29.6702 56.1182 29.5498C56.4632 29.4294 56.7611 29.2585 57.0117 29.0371C57.2624 28.8125 57.4593 28.5423 57.6025 28.2266C57.7458 27.9108 57.8174 27.556 57.8174 27.1621C57.8174 26.7682 57.7458 26.415 57.6025 26.1025C57.4593 25.79 57.2624 25.5264 57.0117 25.3115C56.7611 25.0934 56.4632 24.9274 56.1182 24.8135C55.7764 24.6995 55.4036 24.6426 55 24.6426C54.5964 24.6426 54.222 24.6995 53.877 24.8135C53.5352 24.9274 53.2373 25.0934 52.9834 25.3115C52.7327 25.5264 52.5358 25.79 52.3926 26.1025C52.2526 26.415 52.1826 26.7682 52.1826 27.1621ZM61.084 23.3682H62.6318V29.6426H67.0703V31H61.084V23.3682ZM68.5742 23.3682H71.3721C72.1891 23.3682 72.8988 23.4561 73.501 23.6318C74.1032 23.8076 74.6012 24.0599 74.9951 24.3887C75.3923 24.7142 75.6868 25.1113 75.8789 25.5801C76.0742 26.0456 76.1719 26.5697 76.1719 27.1523C76.1719 27.7057 76.0758 28.2184 75.8838 28.6904C75.6917 29.1592 75.3988 29.5661 75.0049 29.9111C74.611 30.2529 74.113 30.5215 73.5107 30.7168C72.9085 30.9089 72.1989 31.0049 71.3818 31.0049L68.5742 31V23.3682ZM71.7529 29.6621C72.2152 29.6621 72.6204 29.6035 72.9688 29.4863C73.3171 29.3659 73.6068 29.1966 73.8379 28.9785C74.0723 28.7604 74.248 28.4967 74.3652 28.1875C74.4824 27.8783 74.541 27.5332 74.541 27.1523C74.541 26.778 74.4824 26.4411 74.3652 26.1416C74.248 25.8389 74.0723 25.5833 73.8379 25.375C73.6068 25.1634 73.3171 25.0007 72.9688 24.8867C72.6204 24.7728 72.2152 24.7158 71.7529 24.7158H70.1221V29.6621H71.7529ZM77.4561 28.5684C77.4561 28.4089 77.4723 28.251 77.5049 28.0947C77.5374 27.9385 77.5928 27.7757 77.6709 27.6064C77.7523 27.4372 77.8581 27.2598 77.9883 27.0742C78.1217 26.8854 78.2894 26.6787 78.4912 26.4541C78.3773 26.2686 78.2943 26.0879 78.2422 25.9121C78.1934 25.7331 78.1689 25.5508 78.1689 25.3652C78.1689 25.0592 78.2308 24.7777 78.3545 24.5205C78.4782 24.2633 78.6523 24.042 78.877 23.8564C79.1016 23.6676 79.3701 23.5212 79.6826 23.417C79.9951 23.3128 80.3402 23.2607 80.7178 23.2607C81.1214 23.2607 81.4844 23.3193 81.8066 23.4365C82.1322 23.5537 82.4089 23.7116 82.6367 23.9102C82.8646 24.1087 83.0387 24.3415 83.1592 24.6084C83.2829 24.8721 83.3447 25.1504 83.3447 25.4434C83.3447 25.6224 83.3203 25.8031 83.2715 25.9854C83.2259 26.1644 83.1559 26.3516 83.0615 26.5469C82.9671 26.7389 82.8499 26.9408 82.71 27.1523C82.57 27.3639 82.4072 27.5902 82.2217 27.8311L83.3789 28.6953C83.6296 28.3991 83.8395 28.0622 84.0088 27.6846C84.1813 27.3037 84.3148 26.8919 84.4092 26.4492H83.916V25.2383H87.1387V26.4492H85.6934C85.5794 27.0091 85.4232 27.5446 85.2246 28.0557C85.026 28.5635 84.7656 29.0257 84.4434 29.4424C84.5931 29.527 84.7347 29.5938 84.8682 29.6426C85.0049 29.6882 85.1367 29.7207 85.2637 29.7402C85.3906 29.7598 85.5143 29.7679 85.6348 29.7646C85.7585 29.7614 85.8854 29.75 86.0156 29.7305L86.4551 30.9951C86.1751 31.0505 85.9115 31.0863 85.6641 31.1025C85.4199 31.1188 85.1758 31.1074 84.9316 31.0684C84.6908 31.0326 84.4417 30.9642 84.1846 30.8633C83.9307 30.7624 83.6556 30.6191 83.3594 30.4336C83.0208 30.6452 82.6416 30.8096 82.2217 30.9268C81.805 31.0439 81.3346 31.1025 80.8105 31.1025C80.2539 31.1025 79.7656 31.0358 79.3457 30.9023C78.9258 30.7689 78.5758 30.5882 78.2959 30.3604C78.016 30.1292 77.806 29.8607 77.666 29.5547C77.526 29.2454 77.4561 28.9167 77.4561 28.5684ZM81.1768 27.0449C81.4111 26.7357 81.5771 26.4622 81.6748 26.2246C81.7757 25.9837 81.8262 25.7559 81.8262 25.541C81.8262 25.362 81.7952 25.209 81.7334 25.082C81.6748 24.9518 81.5951 24.846 81.4941 24.7646C81.3932 24.6833 81.2744 24.623 81.1377 24.584C81.0042 24.5449 80.8626 24.5254 80.7129 24.5254C80.5501 24.5254 80.4053 24.5465 80.2783 24.5889C80.1514 24.6279 80.0439 24.6833 79.9561 24.7549C79.8682 24.8265 79.8014 24.9111 79.7559 25.0088C79.7103 25.1064 79.6875 25.2122 79.6875 25.3262C79.6875 25.4108 79.7021 25.502 79.7314 25.5996C79.764 25.694 79.821 25.7998 79.9023 25.917C79.987 26.0342 80.1025 26.1628 80.249 26.3027C80.3988 26.4427 80.5892 26.6006 80.8203 26.7764L81.1768 27.0449ZM78.9746 28.4609C78.9746 28.6432 79.012 28.8174 79.0869 28.9834C79.165 29.1494 79.2822 29.2959 79.4385 29.4229C79.598 29.5498 79.7965 29.6507 80.0342 29.7256C80.2751 29.8005 80.5583 29.8379 80.8838 29.8379C81.1247 29.8379 81.3525 29.8167 81.5674 29.7744C81.7822 29.7321 81.9873 29.6702 82.1826 29.5889L79.7998 27.7773C79.7249 27.722 79.6533 27.6667 79.585 27.6113C79.5166 27.556 79.4499 27.5007 79.3848 27.4453C79.2546 27.6081 79.1536 27.7725 79.082 27.9385C79.0104 28.1012 78.9746 28.2754 78.9746 28.4609ZM88.5742 23.3682H91.3721C92.1891 23.3682 92.8988 23.4561 93.501 23.6318C94.1032 23.8076 94.6012 24.0599 94.9951 24.3887C95.3923 24.7142 95.6868 25.1113 95.8789 25.5801C96.0742 26.0456 96.1719 26.5697 96.1719 27.1523C96.1719 27.7057 96.0758 28.2184 95.8838 28.6904C95.6917 29.1592 95.3988 29.5661 95.0049 29.9111C94.611 30.2529 94.113 30.5215 93.5107 30.7168C92.9085 30.9089 92.1989 31.0049 91.3818 31.0049L88.5742 31V23.3682ZM91.7529 29.6621C92.2152 29.6621 92.6204 29.6035 92.9688 29.4863C93.3171 29.3659 93.6068 29.1966 93.8379 28.9785C94.0723 28.7604 94.248 28.4967 94.3652 28.1875C94.4824 27.8783 94.541 27.5332 94.541 27.1523C94.541 26.778 94.4824 26.4411 94.3652 26.1416C94.248 25.8389 94.0723 25.5833 93.8379 25.375C93.6068 25.1634 93.3171 25.0007 92.9688 24.8867C92.6204 24.7728 92.2152 24.7158 91.7529 24.7158H90.1221V29.6621H91.7529ZM97.5293 23.3682H99.0869V31H97.5293V23.3682ZM103.667 23.3682H105.308L108.999 31H107.373L106.763 29.7158H102.305L101.714 31H100.083L103.667 23.3682ZM106.152 28.4414L104.502 24.9746L102.896 28.4414H106.152ZM110.19 23.3682H111.738L114.512 26.1514L117.285 23.3682H118.833V31H117.285V25.5117L114.512 28.1826L111.738 25.5117V31H110.19V23.3682ZM120.557 27.1621C120.557 26.5859 120.662 26.0586 120.874 25.5801C121.086 25.1016 121.382 24.6914 121.763 24.3496C122.147 24.0046 122.606 23.7376 123.14 23.5488C123.677 23.36 124.271 23.2656 124.922 23.2656C125.57 23.2656 126.162 23.36 126.699 23.5488C127.236 23.7376 127.695 24.0046 128.076 24.3496C128.46 24.6914 128.758 25.1016 128.97 25.5801C129.181 26.0586 129.287 26.5859 129.287 27.1621C129.287 27.7415 129.181 28.2738 128.97 28.7588C128.758 29.2406 128.46 29.6556 128.076 30.0039C127.695 30.3522 127.236 30.624 126.699 30.8193C126.162 31.0114 125.57 31.1074 124.922 31.1074C124.271 31.1074 123.677 31.0114 123.14 30.8193C122.606 30.624 122.147 30.3522 121.763 30.0039C121.382 29.6556 121.086 29.2406 120.874 28.7588C120.662 28.2738 120.557 27.7415 120.557 27.1621ZM122.104 27.1621C122.104 27.556 122.174 27.9108 122.314 28.2266C122.458 28.5423 122.655 28.8125 122.905 29.0371C123.159 29.2585 123.457 29.4294 123.799 29.5498C124.144 29.6702 124.518 29.7305 124.922 29.7305C125.326 29.7305 125.698 29.6702 126.04 29.5498C126.385 29.4294 126.683 29.2585 126.934 29.0371C127.184 28.8125 127.381 28.5423 127.524 28.2266C127.668 27.9108 127.739 27.556 127.739 27.1621C127.739 26.7682 127.668 26.415 127.524 26.1025C127.381 25.79 127.184 25.5264 126.934 25.3115C126.683 25.0934 126.385 24.9274 126.04 24.8135C125.698 24.6995 125.326 24.6426 124.922 24.6426C124.518 24.6426 124.144 24.6995 123.799 24.8135C123.457 24.9274 123.159 25.0934 122.905 25.3115C122.655 25.5264 122.458 25.79 122.314 26.1025C122.174 26.415 122.104 26.7682 122.104 27.1621ZM130.996 23.3682H132.544L137.3 25.8584V23.3682H138.848V31H137.3V27.499L132.544 25.0234V31H130.996V23.3682ZM141.006 23.3682H143.804C144.621 23.3682 145.33 23.4561 145.933 23.6318C146.535 23.8076 147.033 24.0599 147.427 24.3887C147.824 24.7142 148.118 25.1113 148.311 25.5801C148.506 26.0456 148.604 26.5697 148.604 27.1523C148.604 27.7057 148.507 28.2184 148.315 28.6904C148.123 29.1592 147.83 29.5661 147.437 29.9111C147.043 30.2529 146.545 30.5215 145.942 30.7168C145.34 30.9089 144.631 31.0049 143.813 31.0049L141.006 31V23.3682ZM144.185 29.6621C144.647 29.6621 145.052 29.6035 145.4 29.4863C145.749 29.3659 146.038 29.1966 146.27 28.9785C146.504 28.7604 146.68 28.4967 146.797 28.1875C146.914 27.8783 146.973 27.5332 146.973 27.1523C146.973 26.778 146.914 26.4411 146.797 26.1416C146.68 25.8389 146.504 25.5833 146.27 25.375C146.038 25.1634 145.749 25.0007 145.4 24.8867C145.052 24.7728 144.647 24.7158 144.185 24.7158H142.554V29.6621H144.185ZM150.513 28.7295C150.789 28.8857 151.069 29.0273 151.353 29.1543C151.639 29.278 151.935 29.3838 152.241 29.4717C152.547 29.5563 152.868 29.6214 153.203 29.667C153.542 29.7126 153.901 29.7354 154.282 29.7354C154.741 29.7354 155.132 29.7061 155.454 29.6475C155.776 29.5856 156.038 29.5026 156.24 29.3984C156.445 29.291 156.593 29.1641 156.685 29.0176C156.779 28.8711 156.826 28.7116 156.826 28.5391C156.826 28.2624 156.711 28.0443 156.479 27.8848C156.248 27.722 155.892 27.6406 155.41 27.6406C155.199 27.6406 154.976 27.6553 154.741 27.6846C154.507 27.7106 154.269 27.7399 154.028 27.7725C153.791 27.805 153.555 27.8359 153.32 27.8652C153.089 27.8913 152.871 27.9043 152.666 27.9043C152.324 27.9043 151.995 27.8604 151.68 27.7725C151.367 27.6846 151.089 27.5527 150.845 27.377C150.604 27.2012 150.412 26.9814 150.269 26.7178C150.125 26.4541 150.054 26.1465 150.054 25.7949C150.054 25.5866 150.081 25.3799 150.137 25.1748C150.195 24.9697 150.286 24.7744 150.41 24.5889C150.537 24.4001 150.7 24.2259 150.898 24.0664C151.097 23.9036 151.336 23.7637 151.616 23.6465C151.899 23.5293 152.225 23.4382 152.593 23.373C152.964 23.3047 153.385 23.2705 153.857 23.2705C154.199 23.2705 154.543 23.29 154.888 23.3291C155.233 23.3649 155.568 23.417 155.894 23.4854C156.222 23.5537 156.538 23.6367 156.841 23.7344C157.144 23.8288 157.425 23.9346 157.686 24.0518L157.007 25.3018C156.792 25.2074 156.561 25.1211 156.313 25.043C156.066 24.9616 155.807 24.8916 155.537 24.833C155.267 24.7744 154.987 24.7288 154.697 24.6963C154.411 24.6605 154.118 24.6426 153.818 24.6426C153.392 24.6426 153.04 24.6735 152.764 24.7354C152.49 24.7972 152.272 24.877 152.109 24.9746C151.947 25.069 151.833 25.1764 151.768 25.2969C151.706 25.4141 151.675 25.5312 151.675 25.6484C151.675 25.8763 151.777 26.0635 151.982 26.21C152.188 26.3532 152.5 26.4248 152.92 26.4248C153.089 26.4248 153.283 26.4134 153.501 26.3906C153.722 26.3646 153.953 26.3369 154.194 26.3076C154.438 26.2783 154.686 26.2523 154.937 26.2295C155.19 26.2035 155.436 26.1904 155.674 26.1904C156.123 26.1904 156.52 26.2409 156.865 26.3418C157.214 26.4427 157.505 26.5876 157.739 26.7764C157.974 26.9619 158.151 27.1882 158.271 27.4551C158.392 27.7188 158.452 28.015 158.452 28.3438C158.452 28.7832 158.35 29.1755 158.145 29.5205C157.943 29.8623 157.653 30.152 157.275 30.3896C156.901 30.624 156.449 30.8031 155.918 30.9268C155.387 31.0472 154.797 31.1074 154.146 31.1074C153.716 31.1074 153.296 31.0798 152.886 31.0244C152.476 30.9723 152.082 30.8975 151.704 30.7998C151.33 30.6989 150.972 30.5801 150.63 30.4434C150.291 30.3034 149.977 30.1504 149.688 29.9844L150.513 28.7295Z" fill="#32725E"/>
<mask id="path-2-outside-1_2067_1796" maskUnits="userSpaceOnUse" x="0" y="0" width="36" height="36" fill="black">
<rect fill="white" width="36" height="36"/>
<path fill-rule="evenodd" clip-rule="evenodd" d="M16.606 1.08955C15.5175 1.2852 14.3784 1.76064 13.4848 2.39237C12.5528 3.05113 11.5277 4.25627 10.9881 5.3276C10.4335 6.42875 10.0959 7.66311 9.87752 9.38846C9.85746 9.54676 9.80273 9.71471 9.75582 9.76173C9.708 9.80966 9.47649 9.8653 9.22909 9.88838C6.58551 10.1351 4.61002 10.9057 3.21368 12.2351C2.58337 12.8352 2.20578 13.3508 1.81711 14.1423C1.23861 15.3205 1.00061 16.4283 1 17.946C0.999092 20.1895 1.70438 21.9278 3.24059 23.4683C4.69414 24.926 6.58315 25.7707 9.07478 26.0772C9.36606 26.1131 9.64582 26.1583 9.69655 26.1778C9.81213 26.2223 9.82692 26.2899 9.93934 27.2882C10.4437 31.7665 12.6662 34.3608 16.4804 34.9234C17.3782 35.0558 19.0968 35.0105 19.8485 34.8346C21.2593 34.5046 22.3471 33.9285 23.3424 32.9842C24.8501 31.5538 25.7711 29.5525 26.0597 27.0794C26.1099 26.6495 26.1747 26.274 26.2035 26.2451C26.2324 26.2161 26.4576 26.166 26.7039 26.1336C28.6414 25.8793 29.3212 25.7306 30.3033 25.346C33.3838 24.1398 35.0018 21.613 35 18.0116C34.9982 14.3312 32.8698 11.5142 29.2361 10.3828C28.4594 10.1411 27.8781 10.019 26.919 9.89658C26.5577 9.85041 26.237 9.78754 26.2064 9.75681C26.1756 9.72601 26.1082 9.33349 26.0565 8.88448C25.5293 4.30894 23.2992 1.66041 19.4849 1.07983C18.759 0.96934 17.2462 0.974442 16.606 1.08955ZM17.0909 2.82237C16.1816 2.93815 15.3278 3.25413 14.5824 3.75083C14.1129 4.0636 13.3137 4.8747 12.992 5.36496C12.1885 6.58899 11.7302 8.0998 11.6075 9.92817C11.3708 13.4561 12.7345 16.0039 15.7799 17.7237C16.2826 18.0076 17.6576 18.6445 18.9291 19.1824C20.1467 19.6975 21.2121 20.4179 21.8383 21.1498C22.6679 22.1191 23.1233 23.1003 23.3364 24.3772C23.4747 25.2063 23.4301 26.7967 23.2439 27.6752C22.9014 29.2914 22.2072 30.5327 21.2329 31.2713C20.1719 32.0756 18.8032 32.4272 17.314 32.2779C15.8634 32.1326 15.0417 31.7781 14.2021 30.9352C13.7507 30.4821 13.634 30.3196 13.3706 29.777C12.9916 28.9962 12.7896 28.256 12.6396 27.0972C12.5759 26.6051 12.5066 26.1746 12.4855 26.1405C12.4352 26.0587 12.0973 26.0612 11.857 26.1452C11.6066 26.2327 11.5809 26.3595 11.6662 27.0891C12.1444 31.1835 14.2375 33.2527 17.9091 33.2606C20.0628 33.2653 21.6126 32.5308 22.8105 30.9378C23.4441 30.0952 23.8863 29.0643 24.1524 27.8096C24.3401 26.9239 24.3884 25.0555 24.246 24.1886C23.9078 22.131 22.8484 20.4791 21.1267 19.325C20.378 18.8231 19.6958 18.4734 18.303 17.878C16.3535 17.0447 15.5664 16.5819 14.6727 15.744C13.2036 14.3664 12.5558 12.8157 12.557 10.68C12.5584 8.22499 13.2715 6.26796 14.632 4.98519C15.5499 4.11984 16.6312 3.70837 18 3.70369C20.8121 3.6941 22.5263 5.09265 23.154 7.90839C23.2331 8.26344 23.3265 8.83837 23.3614 9.18588C23.3964 9.53346 23.4555 9.85467 23.4927 9.89962C23.5753 9.99948 23.7316 10.0032 24.033 9.91274C24.3203 9.82648 24.3467 9.71751 24.2661 8.9488C24.1281 7.63359 23.713 6.25861 23.179 5.34837C22.87 4.82173 21.9697 3.90706 21.4701 3.61221C20.3141 2.93007 18.6304 2.62641 17.0909 2.82237ZM17.006 5.60708C16.7594 5.6739 16.4321 5.80182 16.2788 5.89136C15.2529 6.49041 14.5181 7.99179 14.3282 9.87696C14.1291 11.854 14.6345 13.3244 15.9163 14.4968C16.3947 14.9344 16.8079 15.1849 16.9568 15.1276C17.01 15.1071 17.1825 14.8663 17.34 14.5926C17.766 13.8525 18.2854 13.1798 18.9352 12.5268C19.609 11.8495 20.1987 11.3944 21.0021 10.9316L21.5758 10.601L21.5941 10.0938C21.6274 9.17343 21.403 7.96458 21.0567 7.19922C20.7004 6.41156 20.1953 5.9272 19.4546 5.66296C18.9108 5.46895 17.6245 5.43961 17.006 5.60708ZM24.4326 11.6904C22.7864 11.9023 21.3108 12.6226 20.2 13.7566C19.7263 14.2403 18.8777 15.4415 18.7496 15.8097C18.6857 15.9934 18.6924 16.0217 18.8246 16.1241C18.9044 16.186 19.0652 16.2646 19.1818 16.2986C19.376 16.3552 19.4055 16.3463 19.5305 16.1929C19.6055 16.1008 19.7639 15.8597 19.8825 15.6573C20.5277 14.5554 21.6355 13.5927 22.8671 13.0635C24.3194 12.4397 26.3845 12.3782 28.3336 12.9011C28.9854 13.0759 30.0482 13.6159 30.531 14.0176C31.3614 14.7085 31.9389 15.6786 32.1601 16.7543C32.3252 17.5573 32.2946 18.9816 32.0962 19.7307C31.8726 20.5749 31.5318 21.1772 30.9417 21.7711C30.4963 22.2195 30.3337 22.3371 29.7875 22.6057C28.9966 22.9947 28.3462 23.1819 27.3335 23.3118C26.9002 23.3673 26.4365 23.4322 26.3032 23.4558L26.0608 23.4988L26.0619 23.8391C26.0637 24.3553 26.1268 24.4014 26.765 24.3532C28.0116 24.2589 29.2595 23.9405 30.1821 23.4812C31.2388 22.9551 32.0947 22.118 32.5776 21.1377C33.0301 20.2195 33.1866 19.5332 33.2243 18.3032C33.251 17.4326 33.2377 17.2172 33.1235 16.6632C32.8841 15.5022 32.4744 14.6892 31.7412 13.92C30.7916 12.9238 29.7236 12.3156 28.2781 11.9474C27.1576 11.6621 25.5088 11.5519 24.4326 11.6904ZM8.4658 11.7777C6.25114 12.1011 4.63923 12.9819 3.72957 14.3658C3.05501 15.3921 2.79149 16.4187 2.79701 17.9995C2.80004 18.8833 2.81943 19.0735 2.96089 19.6087C3.70285 22.4153 6.06193 24.0644 9.7877 24.3811C11.9543 24.5652 13.927 24.072 15.3644 22.9867C16.1355 22.4044 17.3382 21.021 17.378 20.6703C17.3895 20.5688 17.3367 20.4904 17.188 20.3884C16.8227 20.1377 16.6983 20.1847 16.2363 20.7482C14.5313 22.8275 12.5872 23.6446 9.89031 23.4149C8.18367 23.2695 6.86303 22.8433 5.81792 22.1002C5.34821 21.7662 4.60141 20.9737 4.34122 20.5331C3.4969 19.1032 3.47533 16.8709 4.29068 15.2981C4.62062 14.6618 5.25094 13.9967 5.89126 13.6095C6.70964 13.1146 7.97463 12.7346 9.18163 12.6212C9.82279 12.5608 9.90892 12.5193 9.90892 12.2699C9.90892 12.1571 9.87898 11.9787 9.84237 11.8735C9.7771 11.6858 9.76892 11.6824 9.40297 11.6887C9.19787 11.6924 8.77617 11.7324 8.4658 11.7777ZM9.36345 14.3972C8.02664 14.5406 6.91134 14.9425 6.32551 15.4917C5.71149 16.0673 5.44234 16.9358 5.50155 18.1502C5.56943 19.5423 6.13223 20.3915 7.39802 21.0117C8.68144 21.6407 10.7448 21.8786 12.0908 21.5529C12.7943 21.3827 13.5325 20.9749 14.0935 20.4467C14.6024 19.9676 14.9393 19.5609 14.9393 19.4258C14.9393 19.3851 14.5916 19.1177 14.1666 18.8317C12.5762 17.7614 11.6039 16.6916 10.7796 15.1049C10.5914 14.7425 10.4071 14.426 10.3701 14.4014C10.3027 14.3567 9.76158 14.3544 9.36345 14.3972ZM24.4547 14.4416C23.2565 14.696 22.342 15.2952 21.6742 16.2632C21.5009 16.5145 21.3204 16.8129 21.2731 16.9264C21.1692 17.1757 21.1784 17.186 22.0106 17.7507C23.339 18.652 24.4403 19.8545 25.1232 21.1494C25.4291 21.7293 25.4625 21.7422 26.4263 21.655C28.4009 21.4762 29.6813 20.8648 30.1664 19.8689C30.4283 19.3314 30.5176 18.891 30.5215 18.1182C30.5273 16.9902 30.2738 16.2687 29.6478 15.6309C29.079 15.0515 28.5039 14.7499 27.5457 14.5285C26.8612 14.3704 25.0325 14.319 24.4547 14.4416ZM19.0525 21.5682C18.9689 21.66 18.7388 21.9675 18.5412 22.2514C18.0585 22.9447 16.92 24.0771 16.2424 24.538C15.9424 24.742 15.3901 25.063 15.0151 25.2512C14.2565 25.632 14.3019 25.5633 14.3275 26.291C14.3345 26.4914 14.3827 26.9151 14.4345 27.2325C14.7336 29.0649 15.4001 30.0138 16.6641 30.4064C17.2373 30.5845 18.4824 30.5969 19.0277 30.4301C19.8225 30.187 20.4078 29.7473 20.8799 29.0387C21.6296 27.9136 21.8809 25.3776 21.3893 23.8989C21.0814 22.9725 20.4644 22.1656 19.6709 21.6517C19.4583 21.5139 19.2663 21.4011 19.2444 21.4011C19.2225 21.4011 19.1361 21.4763 19.0525 21.5682Z"/>
</mask>
<path fill-rule="evenodd" clip-rule="evenodd" d="M16.606 1.08955C15.5175 1.2852 14.3784 1.76064 13.4848 2.39237C12.5528 3.05113 11.5277 4.25627 10.9881 5.3276C10.4335 6.42875 10.0959 7.66311 9.87752 9.38846C9.85746 9.54676 9.80273 9.71471 9.75582 9.76173C9.708 9.80966 9.47649 9.8653 9.22909 9.88838C6.58551 10.1351 4.61002 10.9057 3.21368 12.2351C2.58337 12.8352 2.20578 13.3508 1.81711 14.1423C1.23861 15.3205 1.00061 16.4283 1 17.946C0.999092 20.1895 1.70438 21.9278 3.24059 23.4683C4.69414 24.926 6.58315 25.7707 9.07478 26.0772C9.36606 26.1131 9.64582 26.1583 9.69655 26.1778C9.81213 26.2223 9.82692 26.2899 9.93934 27.2882C10.4437 31.7665 12.6662 34.3608 16.4804 34.9234C17.3782 35.0558 19.0968 35.0105 19.8485 34.8346C21.2593 34.5046 22.3471 33.9285 23.3424 32.9842C24.8501 31.5538 25.7711 29.5525 26.0597 27.0794C26.1099 26.6495 26.1747 26.274 26.2035 26.2451C26.2324 26.2161 26.4576 26.166 26.7039 26.1336C28.6414 25.8793 29.3212 25.7306 30.3033 25.346C33.3838 24.1398 35.0018 21.613 35 18.0116C34.9982 14.3312 32.8698 11.5142 29.2361 10.3828C28.4594 10.1411 27.8781 10.019 26.919 9.89658C26.5577 9.85041 26.237 9.78754 26.2064 9.75681C26.1756 9.72601 26.1082 9.33349 26.0565 8.88448C25.5293 4.30894 23.2992 1.66041 19.4849 1.07983C18.759 0.96934 17.2462 0.974442 16.606 1.08955ZM17.0909 2.82237C16.1816 2.93815 15.3278 3.25413 14.5824 3.75083C14.1129 4.0636 13.3137 4.8747 12.992 5.36496C12.1885 6.58899 11.7302 8.0998 11.6075 9.92817C11.3708 13.4561 12.7345 16.0039 15.7799 17.7237C16.2826 18.0076 17.6576 18.6445 18.9291 19.1824C20.1467 19.6975 21.2121 20.4179 21.8383 21.1498C22.6679 22.1191 23.1233 23.1003 23.3364 24.3772C23.4747 25.2063 23.4301 26.7967 23.2439 27.6752C22.9014 29.2914 22.2072 30.5327 21.2329 31.2713C20.1719 32.0756 18.8032 32.4272 17.314 32.2779C15.8634 32.1326 15.0417 31.7781 14.2021 30.9352C13.7507 30.4821 13.634 30.3196 13.3706 29.777C12.9916 28.9962 12.7896 28.256 12.6396 27.0972C12.5759 26.6051 12.5066 26.1746 12.4855 26.1405C12.4352 26.0587 12.0973 26.0612 11.857 26.1452C11.6066 26.2327 11.5809 26.3595 11.6662 27.0891C12.1444 31.1835 14.2375 33.2527 17.9091 33.2606C20.0628 33.2653 21.6126 32.5308 22.8105 30.9378C23.4441 30.0952 23.8863 29.0643 24.1524 27.8096C24.3401 26.9239 24.3884 25.0555 24.246 24.1886C23.9078 22.131 22.8484 20.4791 21.1267 19.325C20.378 18.8231 19.6958 18.4734 18.303 17.878C16.3535 17.0447 15.5664 16.5819 14.6727 15.744C13.2036 14.3664 12.5558 12.8157 12.557 10.68C12.5584 8.22499 13.2715 6.26796 14.632 4.98519C15.5499 4.11984 16.6312 3.70837 18 3.70369C20.8121 3.6941 22.5263 5.09265 23.154 7.90839C23.2331 8.26344 23.3265 8.83837 23.3614 9.18588C23.3964 9.53346 23.4555 9.85467 23.4927 9.89962C23.5753 9.99948 23.7316 10.0032 24.033 9.91274C24.3203 9.82648 24.3467 9.71751 24.2661 8.9488C24.1281 7.63359 23.713 6.25861 23.179 5.34837C22.87 4.82173 21.9697 3.90706 21.4701 3.61221C20.3141 2.93007 18.6304 2.62641 17.0909 2.82237ZM17.006 5.60708C16.7594 5.6739 16.4321 5.80182 16.2788 5.89136C15.2529 6.49041 14.5181 7.99179 14.3282 9.87696C14.1291 11.854 14.6345 13.3244 15.9163 14.4968C16.3947 14.9344 16.8079 15.1849 16.9568 15.1276C17.01 15.1071 17.1825 14.8663 17.34 14.5926C17.766 13.8525 18.2854 13.1798 18.9352 12.5268C19.609 11.8495 20.1987 11.3944 21.0021 10.9316L21.5758 10.601L21.5941 10.0938C21.6274 9.17343 21.403 7.96458 21.0567 7.19922C20.7004 6.41156 20.1953 5.9272 19.4546 5.66296C18.9108 5.46895 17.6245 5.43961 17.006 5.60708ZM24.4326 11.6904C22.7864 11.9023 21.3108 12.6226 20.2 13.7566C19.7263 14.2403 18.8777 15.4415 18.7496 15.8097C18.6857 15.9934 18.6924 16.0217 18.8246 16.1241C18.9044 16.186 19.0652 16.2646 19.1818 16.2986C19.376 16.3552 19.4055 16.3463 19.5305 16.1929C19.6055 16.1008 19.7639 15.8597 19.8825 15.6573C20.5277 14.5554 21.6355 13.5927 22.8671 13.0635C24.3194 12.4397 26.3845 12.3782 28.3336 12.9011C28.9854 13.0759 30.0482 13.6159 30.531 14.0176C31.3614 14.7085 31.9389 15.6786 32.1601 16.7543C32.3252 17.5573 32.2946 18.9816 32.0962 19.7307C31.8726 20.5749 31.5318 21.1772 30.9417 21.7711C30.4963 22.2195 30.3337 22.3371 29.7875 22.6057C28.9966 22.9947 28.3462 23.1819 27.3335 23.3118C26.9002 23.3673 26.4365 23.4322 26.3032 23.4558L26.0608 23.4988L26.0619 23.8391C26.0637 24.3553 26.1268 24.4014 26.765 24.3532C28.0116 24.2589 29.2595 23.9405 30.1821 23.4812C31.2388 22.9551 32.0947 22.118 32.5776 21.1377C33.0301 20.2195 33.1866 19.5332 33.2243 18.3032C33.251 17.4326 33.2377 17.2172 33.1235 16.6632C32.8841 15.5022 32.4744 14.6892 31.7412 13.92C30.7916 12.9238 29.7236 12.3156 28.2781 11.9474C27.1576 11.6621 25.5088 11.5519 24.4326 11.6904ZM8.4658 11.7777C6.25114 12.1011 4.63923 12.9819 3.72957 14.3658C3.05501 15.3921 2.79149 16.4187 2.79701 17.9995C2.80004 18.8833 2.81943 19.0735 2.96089 19.6087C3.70285 22.4153 6.06193 24.0644 9.7877 24.3811C11.9543 24.5652 13.927 24.072 15.3644 22.9867C16.1355 22.4044 17.3382 21.021 17.378 20.6703C17.3895 20.5688 17.3367 20.4904 17.188 20.3884C16.8227 20.1377 16.6983 20.1847 16.2363 20.7482C14.5313 22.8275 12.5872 23.6446 9.89031 23.4149C8.18367 23.2695 6.86303 22.8433 5.81792 22.1002C5.34821 21.7662 4.60141 20.9737 4.34122 20.5331C3.4969 19.1032 3.47533 16.8709 4.29068 15.2981C4.62062 14.6618 5.25094 13.9967 5.89126 13.6095C6.70964 13.1146 7.97463 12.7346 9.18163 12.6212C9.82279 12.5608 9.90892 12.5193 9.90892 12.2699C9.90892 12.1571 9.87898 11.9787 9.84237 11.8735C9.7771 11.6858 9.76892 11.6824 9.40297 11.6887C9.19787 11.6924 8.77617 11.7324 8.4658 11.7777ZM9.36345 14.3972C8.02664 14.5406 6.91134 14.9425 6.32551 15.4917C5.71149 16.0673 5.44234 16.9358 5.50155 18.1502C5.56943 19.5423 6.13223 20.3915 7.39802 21.0117C8.68144 21.6407 10.7448 21.8786 12.0908 21.5529C12.7943 21.3827 13.5325 20.9749 14.0935 20.4467C14.6024 19.9676 14.9393 19.5609 14.9393 19.4258C14.9393 19.3851 14.5916 19.1177 14.1666 18.8317C12.5762 17.7614 11.6039 16.6916 10.7796 15.1049C10.5914 14.7425 10.4071 14.426 10.3701 14.4014C10.3027 14.3567 9.76158 14.3544 9.36345 14.3972ZM24.4547 14.4416C23.2565 14.696 22.342 15.2952 21.6742 16.2632C21.5009 16.5145 21.3204 16.8129 21.2731 16.9264C21.1692 17.1757 21.1784 17.186 22.0106 17.7507C23.339 18.652 24.4403 19.8545 25.1232 21.1494C25.4291 21.7293 25.4625 21.7422 26.4263 21.655C28.4009 21.4762 29.6813 20.8648 30.1664 19.8689C30.4283 19.3314 30.5176 18.891 30.5215 18.1182C30.5273 16.9902 30.2738 16.2687 29.6478 15.6309C29.079 15.0515 28.5039 14.7499 27.5457 14.5285C26.8612 14.3704 25.0325 14.319 24.4547 14.4416ZM19.0525 21.5682C18.9689 21.66 18.7388 21.9675 18.5412 22.2514C18.0585 22.9447 16.92 24.0771 16.2424 24.538C15.9424 24.742 15.3901 25.063 15.0151 25.2512C14.2565 25.632 14.3019 25.5633 14.3275 26.291C14.3345 26.4914 14.3827 26.9151 14.4345 27.2325C14.7336 29.0649 15.4001 30.0138 16.6641 30.4064C17.2373 30.5845 18.4824 30.5969 19.0277 30.4301C19.8225 30.187 20.4078 29.7473 20.8799 29.0387C21.6296 27.9136 21.8809 25.3776 21.3893 23.8989C21.0814 22.9725 20.4644 22.1656 19.6709 21.6517C19.4583 21.5139 19.2663 21.4011 19.2444 21.4011C19.2225 21.4011 19.1361 21.4763 19.0525 21.5682Z" fill="url(#paint0_linear_2067_1796)"/>
<path fill-rule="evenodd" clip-rule="evenodd" d="M16.606 1.08955C15.5175 1.2852 14.3784 1.76064 13.4848 2.39237C12.5528 3.05113 11.5277 4.25627 10.9881 5.3276C10.4335 6.42875 10.0959 7.66311 9.87752 9.38846C9.85746 9.54676 9.80273 9.71471 9.75582 9.76173C9.708 9.80966 9.47649 9.8653 9.22909 9.88838C6.58551 10.1351 4.61002 10.9057 3.21368 12.2351C2.58337 12.8352 2.20578 13.3508 1.81711 14.1423C1.23861 15.3205 1.00061 16.4283 1 17.946C0.999092 20.1895 1.70438 21.9278 3.24059 23.4683C4.69414 24.926 6.58315 25.7707 9.07478 26.0772C9.36606 26.1131 9.64582 26.1583 9.69655 26.1778C9.81213 26.2223 9.82692 26.2899 9.93934 27.2882C10.4437 31.7665 12.6662 34.3608 16.4804 34.9234C17.3782 35.0558 19.0968 35.0105 19.8485 34.8346C21.2593 34.5046 22.3471 33.9285 23.3424 32.9842C24.8501 31.5538 25.7711 29.5525 26.0597 27.0794C26.1099 26.6495 26.1747 26.274 26.2035 26.2451C26.2324 26.2161 26.4576 26.166 26.7039 26.1336C28.6414 25.8793 29.3212 25.7306 30.3033 25.346C33.3838 24.1398 35.0018 21.613 35 18.0116C34.9982 14.3312 32.8698 11.5142 29.2361 10.3828C28.4594 10.1411 27.8781 10.019 26.919 9.89658C26.5577 9.85041 26.237 9.78754 26.2064 9.75681C26.1756 9.72601 26.1082 9.33349 26.0565 8.88448C25.5293 4.30894 23.2992 1.66041 19.4849 1.07983C18.759 0.96934 17.2462 0.974442 16.606 1.08955ZM17.0909 2.82237C16.1816 2.93815 15.3278 3.25413 14.5824 3.75083C14.1129 4.0636 13.3137 4.8747 12.992 5.36496C12.1885 6.58899 11.7302 8.0998 11.6075 9.92817C11.3708 13.4561 12.7345 16.0039 15.7799 17.7237C16.2826 18.0076 17.6576 18.6445 18.9291 19.1824C20.1467 19.6975 21.2121 20.4179 21.8383 21.1498C22.6679 22.1191 23.1233 23.1003 23.3364 24.3772C23.4747 25.2063 23.4301 26.7967 23.2439 27.6752C22.9014 29.2914 22.2072 30.5327 21.2329 31.2713C20.1719 32.0756 18.8032 32.4272 17.314 32.2779C15.8634 32.1326 15.0417 31.7781 14.2021 30.9352C13.7507 30.4821 13.634 30.3196 13.3706 29.777C12.9916 28.9962 12.7896 28.256 12.6396 27.0972C12.5759 26.6051 12.5066 26.1746 12.4855 26.1405C12.4352 26.0587 12.0973 26.0612 11.857 26.1452C11.6066 26.2327 11.5809 26.3595 11.6662 27.0891C12.1444 31.1835 14.2375 33.2527 17.9091 33.2606C20.0628 33.2653 21.6126 32.5308 22.8105 30.9378C23.4441 30.0952 23.8863 29.0643 24.1524 27.8096C24.3401 26.9239 24.3884 25.0555 24.246 24.1886C23.9078 22.131 22.8484 20.4791 21.1267 19.325C20.378 18.8231 19.6958 18.4734 18.303 17.878C16.3535 17.0447 15.5664 16.5819 14.6727 15.744C13.2036 14.3664 12.5558 12.8157 12.557 10.68C12.5584 8.22499 13.2715 6.26796 14.632 4.98519C15.5499 4.11984 16.6312 3.70837 18 3.70369C20.8121 3.6941 22.5263 5.09265 23.154 7.90839C23.2331 8.26344 23.3265 8.83837 23.3614 9.18588C23.3964 9.53346 23.4555 9.85467 23.4927 9.89962C23.5753 9.99948 23.7316 10.0032 24.033 9.91274C24.3203 9.82648 24.3467 9.71751 24.2661 8.9488C24.1281 7.63359 23.713 6.25861 23.179 5.34837C22.87 4.82173 21.9697 3.90706 21.4701 3.61221C20.3141 2.93007 18.6304 2.62641 17.0909 2.82237ZM17.006 5.60708C16.7594 5.6739 16.4321 5.80182 16.2788 5.89136C15.2529 6.49041 14.5181 7.99179 14.3282 9.87696C14.1291 11.854 14.6345 13.3244 15.9163 14.4968C16.3947 14.9344 16.8079 15.1849 16.9568 15.1276C17.01 15.1071 17.1825 14.8663 17.34 14.5926C17.766 13.8525 18.2854 13.1798 18.9352 12.5268C19.609 11.8495 20.1987 11.3944 21.0021 10.9316L21.5758 10.601L21.5941 10.0938C21.6274 9.17343 21.403 7.96458 21.0567 7.19922C20.7004 6.41156 20.1953 5.9272 19.4546 5.66296C18.9108 5.46895 17.6245 5.43961 17.006 5.60708ZM24.4326 11.6904C22.7864 11.9023 21.3108 12.6226 20.2 13.7566C19.7263 14.2403 18.8777 15.4415 18.7496 15.8097C18.6857 15.9934 18.6924 16.0217 18.8246 16.1241C18.9044 16.186 19.0652 16.2646 19.1818 16.2986C19.376 16.3552 19.4055 16.3463 19.5305 16.1929C19.6055 16.1008 19.7639 15.8597 19.8825 15.6573C20.5277 14.5554 21.6355 13.5927 22.8671 13.0635C24.3194 12.4397 26.3845 12.3782 28.3336 12.9011C28.9854 13.0759 30.0482 13.6159 30.531 14.0176C31.3614 14.7085 31.9389 15.6786 32.1601 16.7543C32.3252 17.5573 32.2946 18.9816 32.0962 19.7307C31.8726 20.5749 31.5318 21.1772 30.9417 21.7711C30.4963 22.2195 30.3337 22.3371 29.7875 22.6057C28.9966 22.9947 28.3462 23.1819 27.3335 23.3118C26.9002 23.3673 26.4365 23.4322 26.3032 23.4558L26.0608 23.4988L26.0619 23.8391C26.0637 24.3553 26.1268 24.4014 26.765 24.3532C28.0116 24.2589 29.2595 23.9405 30.1821 23.4812C31.2388 22.9551 32.0947 22.118 32.5776 21.1377C33.0301 20.2195 33.1866 19.5332 33.2243 18.3032C33.251 17.4326 33.2377 17.2172 33.1235 16.6632C32.8841 15.5022 32.4744 14.6892 31.7412 13.92C30.7916 12.9238 29.7236 12.3156 28.2781 11.9474C27.1576 11.6621 25.5088 11.5519 24.4326 11.6904ZM8.4658 11.7777C6.25114 12.1011 4.63923 12.9819 3.72957 14.3658C3.05501 15.3921 2.79149 16.4187 2.79701 17.9995C2.80004 18.8833 2.81943 19.0735 2.96089 19.6087C3.70285 22.4153 6.06193 24.0644 9.7877 24.3811C11.9543 24.5652 13.927 24.072 15.3644 22.9867C16.1355 22.4044 17.3382 21.021 17.378 20.6703C17.3895 20.5688 17.3367 20.4904 17.188 20.3884C16.8227 20.1377 16.6983 20.1847 16.2363 20.7482C14.5313 22.8275 12.5872 23.6446 9.89031 23.4149C8.18367 23.2695 6.86303 22.8433 5.81792 22.1002C5.34821 21.7662 4.60141 20.9737 4.34122 20.5331C3.4969 19.1032 3.47533 16.8709 4.29068 15.2981C4.62062 14.6618 5.25094 13.9967 5.89126 13.6095C6.70964 13.1146 7.97463 12.7346 9.18163 12.6212C9.82279 12.5608 9.90892 12.5193 9.90892 12.2699C9.90892 12.1571 9.87898 11.9787 9.84237 11.8735C9.7771 11.6858 9.76892 11.6824 9.40297 11.6887C9.19787 11.6924 8.77617 11.7324 8.4658 11.7777ZM9.36345 14.3972C8.02664 14.5406 6.91134 14.9425 6.32551 15.4917C5.71149 16.0673 5.44234 16.9358 5.50155 18.1502C5.56943 19.5423 6.13223 20.3915 7.39802 21.0117C8.68144 21.6407 10.7448 21.8786 12.0908 21.5529C12.7943 21.3827 13.5325 20.9749 14.0935 20.4467C14.6024 19.9676 14.9393 19.5609 14.9393 19.4258C14.9393 19.3851 14.5916 19.1177 14.1666 18.8317C12.5762 17.7614 11.6039 16.6916 10.7796 15.1049C10.5914 14.7425 10.4071 14.426 10.3701 14.4014C10.3027 14.3567 9.76158 14.3544 9.36345 14.3972ZM24.4547 14.4416C23.2565 14.696 22.342 15.2952 21.6742 16.2632C21.5009 16.5145 21.3204 16.8129 21.2731 16.9264C21.1692 17.1757 21.1784 17.186 22.0106 17.7507C23.339 18.652 24.4403 19.8545 25.1232 21.1494C25.4291 21.7293 25.4625 21.7422 26.4263 21.655C28.4009 21.4762 29.6813 20.8648 30.1664 19.8689C30.4283 19.3314 30.5176 18.891 30.5215 18.1182C30.5273 16.9902 30.2738 16.2687 29.6478 15.6309C29.079 15.0515 28.5039 14.7499 27.5457 14.5285C26.8612 14.3704 25.0325 14.319 24.4547 14.4416ZM19.0525 21.5682C18.9689 21.66 18.7388 21.9675 18.5412 22.2514C18.0585 22.9447 16.92 24.0771 16.2424 24.538C15.9424 24.742 15.3901 25.063 15.0151 25.2512C14.2565 25.632 14.3019 25.5633 14.3275 26.291C14.3345 26.4914 14.3827 26.9151 14.4345 27.2325C14.7336 29.0649 15.4001 30.0138 16.6641 30.4064C17.2373 30.5845 18.4824 30.5969 19.0277 30.4301C19.8225 30.187 20.4078 29.7473 20.8799 29.0387C21.6296 27.9136 21.8809 25.3776 21.3893 23.8989C21.0814 22.9725 20.4644 22.1656 19.6709 21.6517C19.4583 21.5139 19.2663 21.4011 19.2444 21.4011C19.2225 21.4011 19.1361 21.4763 19.0525 21.5682Z" stroke="#696A78" stroke-width="2" mask="url(#path-2-outside-1_2067_1796)"/>
<defs>
<linearGradient id="paint0_linear_2067_1796" x1="4.92308" y1="-20.7949" x2="18.565" y2="55.4641" gradientUnits="userSpaceOnUse">
<stop stop-color="#FFD053"/>
<stop offset="1" stop-color="#F2DEB4"/>
</linearGradient>
</defs>
</svg>
