<svg width="166" height="38" viewBox="0 0 166 38" fill="none" xmlns="http://www.w3.org/2000/svg">
<path d="M3.45703 13.5508C4.12109 13.9258 4.79297 14.2656 5.47266 14.5703C6.16016 14.8672 6.87109 15.1211 7.60547 15.332C8.33984 15.5352 9.10938 15.6914 9.91406 15.8008C10.7266 15.9102 11.5898 15.9648 12.5039 15.9648C13.6055 15.9648 14.543 15.8945 15.3164 15.7539C16.0898 15.6055 16.7188 15.4062 17.2031 15.1562C17.6953 14.8984 18.0508 14.5938 18.2695 14.2422C18.4961 13.8906 18.6094 13.5078 18.6094 13.0938C18.6094 12.4297 18.332 11.9062 17.7773 11.5234C17.2227 11.1328 16.3672 10.9375 15.2109 10.9375C14.7031 10.9375 14.168 10.9727 13.6055 11.043C13.043 11.1055 12.4727 11.1758 11.8945 11.2539C11.3242 11.332 10.7578 11.4062 10.1953 11.4766C9.64062 11.5391 9.11719 11.5703 8.625 11.5703C7.80469 11.5703 7.01562 11.4648 6.25781 11.2539C5.50781 11.043 4.83984 10.7266 4.25391 10.3047C3.67578 9.88281 3.21484 9.35547 2.87109 8.72266C2.52734 8.08984 2.35547 7.35156 2.35547 6.50781C2.35547 6.00781 2.42188 5.51172 2.55469 5.01953C2.69531 4.52734 2.91406 4.05859 3.21094 3.61328C3.51562 3.16016 3.90625 2.74219 4.38281 2.35938C4.85938 1.96875 5.43359 1.63281 6.10547 1.35156C6.78516 1.07031 7.56641 0.851562 8.44922 0.695312C9.33984 0.53125 10.3516 0.449219 11.4844 0.449219C12.3047 0.449219 13.1289 0.496094 13.957 0.589844C14.7852 0.675781 15.5898 0.800781 16.3711 0.964844C17.1602 1.12891 17.918 1.32812 18.6445 1.5625C19.3711 1.78906 20.0469 2.04297 20.6719 2.32422L19.043 5.32422C18.5273 5.09766 17.9727 4.89062 17.3789 4.70312C16.7852 4.50781 16.1641 4.33984 15.5156 4.19922C14.8672 4.05859 14.1953 3.94922 13.5 3.87109C12.8125 3.78516 12.1094 3.74219 11.3906 3.74219C10.3672 3.74219 9.52344 3.81641 8.85938 3.96484C8.20312 4.11328 7.67969 4.30469 7.28906 4.53906C6.89844 4.76562 6.625 5.02344 6.46875 5.3125C6.32031 5.59375 6.24609 5.875 6.24609 6.15625C6.24609 6.70312 6.49219 7.15234 6.98438 7.50391C7.47656 7.84766 8.22656 8.01953 9.23438 8.01953C9.64062 8.01953 10.1055 7.99219 10.6289 7.9375C11.1602 7.875 11.7148 7.80859 12.293 7.73828C12.8789 7.66797 13.4727 7.60547 14.0742 7.55078C14.6836 7.48828 15.2734 7.45703 15.8438 7.45703C16.9219 7.45703 17.875 7.57812 18.7031 7.82031C19.5391 8.0625 20.2383 8.41016 20.8008 8.86328C21.3633 9.30859 21.7891 9.85156 22.0781 10.4922C22.3672 11.125 22.5117 11.8359 22.5117 12.625C22.5117 13.6797 22.2656 14.6211 21.7734 15.4492C21.2891 16.2695 20.5938 16.9648 19.6875 17.5352C18.7891 18.0977 17.7031 18.5273 16.4297 18.8242C15.1562 19.1133 13.7383 19.2578 12.1758 19.2578C11.1445 19.2578 10.1367 19.1914 9.15234 19.0586C8.16797 18.9336 7.22266 18.7539 6.31641 18.5195C5.41797 18.2773 4.55859 17.9922 3.73828 17.6641C2.92578 17.3281 2.17188 16.9609 1.47656 16.5625L3.45703 13.5508ZM26.5898 0.683594H30.3047V5.46484H41.6953V0.683594H45.4219V19H41.6953V8.64062H30.3047V19H26.5898V0.683594ZM49.5469 9.78906C49.5469 8.40625 49.8008 7.14062 50.3086 5.99219C50.8164 4.84375 51.5273 3.85938 52.4414 3.03906C53.3633 2.21094 54.4648 1.57031 55.7461 1.11719C57.0352 0.664062 58.4609 0.4375 60.0234 0.4375C61.5781 0.4375 63 0.664062 64.2891 1.11719C65.5781 1.57031 66.6797 2.21094 67.5938 3.03906C68.5156 3.85938 69.2305 4.84375 69.7383 5.99219C70.2461 7.14062 70.5 8.40625 70.5 9.78906C70.5 11.1797 70.2461 12.457 69.7383 13.6211C69.2305 14.7773 68.5156 15.7734 67.5938 16.6094C66.6797 17.4453 65.5781 18.0977 64.2891 18.5664C63 19.0273 61.5781 19.2578 60.0234 19.2578C58.4609 19.2578 57.0352 19.0273 55.7461 18.5664C54.4648 18.0977 53.3633 17.4453 52.4414 16.6094C51.5273 15.7734 50.8164 14.7773 50.3086 13.6211C49.8008 12.457 49.5469 11.1797 49.5469 9.78906ZM53.2617 9.78906C53.2617 10.7344 53.4297 11.5859 53.7656 12.3438C54.1094 13.1016 54.582 13.75 55.1836 14.2891C55.793 14.8203 56.5078 15.2305 57.3281 15.5195C58.1562 15.8086 59.0547 15.9531 60.0234 15.9531C60.9922 15.9531 61.8867 15.8086 62.707 15.5195C63.5352 15.2305 64.25 14.8203 64.8516 14.2891C65.4531 13.75 65.9258 13.1016 66.2695 12.3438C66.6133 11.5859 66.7852 10.7344 66.7852 9.78906C66.7852 8.84375 66.6133 7.99609 66.2695 7.24609C65.9258 6.49609 65.4531 5.86328 64.8516 5.34766C64.25 4.82422 63.5352 4.42578 62.707 4.15234C61.8867 3.87891 60.9922 3.74219 60.0234 3.74219C59.0547 3.74219 58.1562 3.87891 57.3281 4.15234C56.5078 4.42578 55.793 4.82422 55.1836 5.34766C54.582 5.86328 54.1094 6.49609 53.7656 7.24609C53.4297 7.99609 53.2617 8.84375 53.2617 9.78906ZM74.625 0.683594H84.4102C85.6055 0.683594 86.6445 0.8125 87.5273 1.07031C88.418 1.32031 89.1562 1.66797 89.7422 2.11328C90.3281 2.55859 90.7617 3.08984 91.043 3.70703C91.332 4.31641 91.4766 4.97656 91.4766 5.6875C91.4766 6.85156 91.1094 7.87109 90.375 8.74609C91.2188 9.24609 91.8477 9.89453 92.2617 10.6914C92.6758 11.4883 92.8828 12.3945 92.8828 13.4102C92.8828 14.2617 92.7383 15.0312 92.4492 15.7188C92.168 16.4062 91.7344 16.9961 91.1484 17.4883C90.5703 17.9727 89.8359 18.3477 88.9453 18.6133C88.0625 18.8711 87.0195 19 85.8164 19H74.625V0.683594ZM85.8398 7.71484C86.1602 7.71484 86.4727 7.72656 86.7773 7.75C87.3008 7.25 87.5625 6.67969 87.5625 6.03906C87.5625 5.375 87.3008 4.86328 86.7773 4.50391C86.2617 4.13672 85.5039 3.95312 84.5039 3.95312H78.3398V7.71484H85.8398ZM85.9102 15.7656C86.9102 15.7656 87.668 15.5508 88.1836 15.1211C88.707 14.6914 88.9688 14.0859 88.9688 13.3047C88.9688 12.5234 88.707 11.9141 88.1836 11.4766C87.668 11.0391 86.9102 10.8203 85.9102 10.8203H78.3398V15.7656H85.9102ZM96.6445 0.683594H100.359V5.46484H111.75V0.683594H115.477V19H111.75V8.64062H100.359V19H96.6445V0.683594ZM126.926 0.683594H130.863L139.723 19H135.82L134.355 15.918H123.656L122.238 19H118.324L126.926 0.683594ZM132.891 12.8594L128.93 4.53906L125.074 12.8594H132.891Z" fill="#121329"/>
<path d="M0.786133 31.5586C0.786133 30.8066 0.927409 30.1048 1.20996 29.4531C1.49251 28.7969 1.90495 28.2272 2.44727 27.7441C2.98958 27.2611 3.65495 26.8805 4.44336 26.6025C5.23633 26.3245 6.14323 26.1855 7.16406 26.1855C7.5332 26.1855 7.90234 26.2061 8.27148 26.2471C8.64518 26.2835 9.01204 26.3428 9.37207 26.4248C9.73665 26.5068 10.0898 26.6117 10.4316 26.7393C10.778 26.8623 11.1061 27.0104 11.416 27.1836L10.418 28.8242C10.2311 28.7148 10.0192 28.6169 9.78223 28.5303C9.54525 28.4391 9.29004 28.3639 9.0166 28.3047C8.74772 28.2409 8.46745 28.193 8.17578 28.1611C7.88867 28.1292 7.59928 28.1133 7.30762 28.1133C6.63314 28.1133 6.03158 28.1999 5.50293 28.373C4.97428 28.5417 4.52767 28.7809 4.16309 29.0908C3.7985 29.3962 3.52051 29.763 3.3291 30.1914C3.1377 30.6198 3.04199 31.0892 3.04199 31.5996C3.04199 32.1283 3.14225 32.6136 3.34277 33.0557C3.54329 33.4977 3.82812 33.8783 4.19727 34.1973C4.56641 34.5163 5.01302 34.7669 5.53711 34.9492C6.0612 35.127 6.64681 35.2158 7.29395 35.2158C7.80892 35.2158 8.2806 35.1589 8.70898 35.0449C9.13737 34.9264 9.51107 34.7601 9.83008 34.5459C10.1491 34.3317 10.4089 34.0742 10.6094 33.7734C10.8099 33.4681 10.9421 33.1263 11.0059 32.748H7.27344V30.9639H12.9541V30.9707L12.9609 30.9639C13.0749 31.5107 13.109 32.0439 13.0635 32.5635C13.0225 33.0785 12.904 33.5661 12.708 34.0264C12.5166 34.4821 12.2523 34.9014 11.915 35.2842C11.5778 35.667 11.1745 35.9974 10.7051 36.2754C10.2357 36.5488 9.70247 36.763 9.10547 36.918C8.50846 37.0684 7.85449 37.1436 7.14355 37.1436C6.15007 37.1436 5.25911 36.9977 4.4707 36.7061C3.68685 36.4144 3.02148 36.0156 2.47461 35.5098C1.92773 35.0039 1.50846 34.4115 1.2168 33.7324C0.929688 33.0534 0.786133 32.3288 0.786133 31.5586ZM14.8887 31.627C14.8887 30.8203 15.0368 30.082 15.333 29.4121C15.6292 28.7422 16.0439 28.168 16.5771 27.6895C17.1149 27.2064 17.7575 26.8327 18.5049 26.5684C19.2568 26.304 20.0885 26.1719 21 26.1719C21.9069 26.1719 22.7363 26.304 23.4883 26.5684C24.2402 26.8327 24.8828 27.2064 25.416 27.6895C25.9538 28.168 26.3708 28.7422 26.667 29.4121C26.9632 30.082 27.1113 30.8203 27.1113 31.627C27.1113 32.4382 26.9632 33.1833 26.667 33.8623C26.3708 34.5368 25.9538 35.1178 25.416 35.6055C24.8828 36.0931 24.2402 36.4736 23.4883 36.7471C22.7363 37.016 21.9069 37.1504 21 37.1504C20.0885 37.1504 19.2568 37.016 18.5049 36.7471C17.7575 36.4736 17.1149 36.0931 16.5771 35.6055C16.0439 35.1178 15.6292 34.5368 15.333 33.8623C15.0368 33.1833 14.8887 32.4382 14.8887 31.627ZM17.0557 31.627C17.0557 32.1784 17.1536 32.6751 17.3496 33.1172C17.5501 33.5592 17.8258 33.9375 18.1768 34.252C18.5322 34.5618 18.9492 34.8011 19.4277 34.9697C19.9108 35.1383 20.4349 35.2227 21 35.2227C21.5651 35.2227 22.0869 35.1383 22.5654 34.9697C23.0485 34.8011 23.4655 34.5618 23.8164 34.252C24.1673 33.9375 24.443 33.5592 24.6436 33.1172C24.8441 32.6751 24.9443 32.1784 24.9443 31.627C24.9443 31.0755 24.8441 30.5811 24.6436 30.1436C24.443 29.7061 24.1673 29.3369 23.8164 29.0361C23.4655 28.7308 23.0485 28.4984 22.5654 28.3389C22.0869 28.1794 21.5651 28.0996 21 28.0996C20.4349 28.0996 19.9108 28.1794 19.4277 28.3389C18.9492 28.4984 18.5322 28.7308 18.1768 29.0361C17.8258 29.3369 17.5501 29.7061 17.3496 30.1436C17.1536 30.5811 17.0557 31.0755 17.0557 31.627ZM29.5176 26.3154H31.6846V35.0996H37.8984V37H29.5176V26.3154ZM40.0039 26.3154H43.9209C45.0648 26.3154 46.0583 26.4385 46.9014 26.6846C47.7445 26.9307 48.4417 27.2839 48.9932 27.7441C49.5492 28.1999 49.9616 28.7559 50.2305 29.4121C50.5039 30.0638 50.6406 30.7975 50.6406 31.6133C50.6406 32.388 50.5062 33.1058 50.2373 33.7666C49.9684 34.4229 49.5583 34.9925 49.0068 35.4756C48.4554 35.9541 47.7581 36.3301 46.915 36.6035C46.0719 36.8724 45.0785 37.0068 43.9346 37.0068L40.0039 37V26.3154ZM44.4541 35.127C45.1012 35.127 45.6686 35.0449 46.1562 34.8809C46.6439 34.7122 47.0495 34.4753 47.373 34.1699C47.7012 33.8646 47.9473 33.4954 48.1113 33.0625C48.2754 32.6296 48.3574 32.1465 48.3574 31.6133C48.3574 31.0892 48.2754 30.6175 48.1113 30.1982C47.9473 29.7744 47.7012 29.4167 47.373 29.125C47.0495 28.8288 46.6439 28.6009 46.1562 28.4414C45.6686 28.2819 45.1012 28.2021 44.4541 28.2021H42.1709V35.127H44.4541ZM52.4385 33.5957C52.4385 33.3724 52.4613 33.1514 52.5068 32.9326C52.5524 32.7139 52.6299 32.486 52.7393 32.249C52.8532 32.012 53.0013 31.7637 53.1836 31.5039C53.3704 31.2396 53.6051 30.9502 53.8877 30.6357C53.7282 30.376 53.612 30.123 53.5391 29.877C53.4707 29.6263 53.4365 29.3711 53.4365 29.1113C53.4365 28.6829 53.5231 28.2887 53.6963 27.9287C53.8695 27.5687 54.1133 27.2588 54.4277 26.999C54.7422 26.7347 55.1182 26.5296 55.5557 26.3838C55.9932 26.238 56.4762 26.165 57.0049 26.165C57.57 26.165 58.0781 26.2471 58.5293 26.4111C58.985 26.5752 59.3724 26.7962 59.6914 27.0742C60.0104 27.3522 60.2542 27.6781 60.4229 28.0518C60.596 28.4209 60.6826 28.8105 60.6826 29.2207C60.6826 29.4714 60.6484 29.7243 60.5801 29.9795C60.5163 30.2301 60.4183 30.4922 60.2861 30.7656C60.154 31.0345 59.9899 31.3171 59.7939 31.6133C59.598 31.9095 59.3701 32.2262 59.1104 32.5635L60.7305 33.7734C61.0814 33.3587 61.3753 32.887 61.6123 32.3584C61.8538 31.8252 62.0407 31.2487 62.1729 30.6289H61.4824V28.9336H65.9941V30.6289H63.9707C63.8112 31.4128 63.5924 32.1624 63.3145 32.8779C63.0365 33.5889 62.6719 34.236 62.2207 34.8193C62.4303 34.9378 62.6286 35.0312 62.8154 35.0996C63.0068 35.1634 63.1914 35.209 63.3691 35.2363C63.5469 35.2637 63.7201 35.2751 63.8887 35.2705C64.0618 35.266 64.2396 35.25 64.4219 35.2227L65.0371 36.9932C64.6452 37.0706 64.276 37.1208 63.9297 37.1436C63.5879 37.1663 63.2461 37.1504 62.9043 37.0957C62.5671 37.0456 62.2184 36.9499 61.8584 36.8086C61.5029 36.6673 61.1178 36.4668 60.7031 36.207C60.2292 36.5033 59.6982 36.7334 59.1104 36.8975C58.527 37.0615 57.8685 37.1436 57.1348 37.1436C56.3555 37.1436 55.6719 37.0501 55.084 36.8633C54.4961 36.6764 54.0062 36.4235 53.6143 36.1045C53.2223 35.7809 52.9284 35.4049 52.7324 34.9766C52.5365 34.5436 52.4385 34.0833 52.4385 33.5957ZM57.6475 31.4629C57.9756 31.0299 58.208 30.6471 58.3447 30.3145C58.486 29.9772 58.5566 29.6582 58.5566 29.3574C58.5566 29.1068 58.5133 28.8926 58.4268 28.7148C58.3447 28.5326 58.2331 28.3844 58.0918 28.2705C57.9505 28.1566 57.7842 28.0723 57.5928 28.0176C57.4059 27.9629 57.2077 27.9355 56.998 27.9355C56.7702 27.9355 56.5674 27.9652 56.3896 28.0244C56.2119 28.0791 56.0615 28.1566 55.9385 28.2568C55.8154 28.3571 55.722 28.4756 55.6582 28.6123C55.5944 28.749 55.5625 28.8971 55.5625 29.0566C55.5625 29.1751 55.583 29.3027 55.624 29.4395C55.6696 29.5716 55.7493 29.7197 55.8633 29.8838C55.9818 30.0479 56.1436 30.2279 56.3486 30.4238C56.5583 30.6198 56.8249 30.8408 57.1484 31.0869L57.6475 31.4629ZM54.5645 33.4453C54.5645 33.7005 54.6169 33.9443 54.7217 34.1768C54.8311 34.4092 54.9951 34.6143 55.2139 34.792C55.4372 34.9697 55.7152 35.111 56.0479 35.2158C56.3851 35.3206 56.7816 35.373 57.2373 35.373C57.5745 35.373 57.8936 35.3434 58.1943 35.2842C58.4951 35.2249 58.7822 35.1383 59.0557 35.0244L55.7197 32.4883C55.6149 32.4108 55.5146 32.3333 55.4189 32.2559C55.3232 32.1784 55.2298 32.1009 55.1387 32.0234C54.9564 32.2513 54.8151 32.4814 54.7148 32.7139C54.6146 32.9417 54.5645 33.1855 54.5645 33.4453ZM68.0039 26.3154H71.9209C73.0648 26.3154 74.0583 26.4385 74.9014 26.6846C75.7445 26.9307 76.4417 27.2839 76.9932 27.7441C77.5492 28.1999 77.9616 28.7559 78.2305 29.4121C78.5039 30.0638 78.6406 30.7975 78.6406 31.6133C78.6406 32.388 78.5062 33.1058 78.2373 33.7666C77.9684 34.4229 77.5583 34.9925 77.0068 35.4756C76.4554 35.9541 75.7581 36.3301 74.915 36.6035C74.0719 36.8724 73.0785 37.0068 71.9346 37.0068L68.0039 37V26.3154ZM72.4541 35.127C73.1012 35.127 73.6686 35.0449 74.1562 34.8809C74.6439 34.7122 75.0495 34.4753 75.373 34.1699C75.7012 33.8646 75.9473 33.4954 76.1113 33.0625C76.2754 32.6296 76.3574 32.1465 76.3574 31.6133C76.3574 31.0892 76.2754 30.6175 76.1113 30.1982C75.9473 29.7744 75.7012 29.4167 75.373 29.125C75.0495 28.8288 74.6439 28.6009 74.1562 28.4414C73.6686 28.2819 73.1012 28.2021 72.4541 28.2021H70.1709V35.127H72.4541ZM80.541 26.3154H82.7217V37H80.541V26.3154ZM89.1338 26.3154H91.4307L96.5986 37H94.3223L93.4678 35.2021H87.2266L86.3994 37H84.1162L89.1338 26.3154ZM92.6133 33.418L90.3027 28.5645L88.0537 33.418H92.6133ZM98.2666 26.3154H100.434L104.316 30.2119L108.199 26.3154H110.366V37H108.199V29.3164L104.316 33.0557L100.434 29.3164V37H98.2666V26.3154ZM112.779 31.627C112.779 30.8203 112.927 30.082 113.224 29.4121C113.52 28.7422 113.935 28.168 114.468 27.6895C115.006 27.2064 115.648 26.8327 116.396 26.5684C117.147 26.304 117.979 26.1719 118.891 26.1719C119.798 26.1719 120.627 26.304 121.379 26.5684C122.131 26.8327 122.773 27.2064 123.307 27.6895C123.844 28.168 124.261 28.7422 124.558 29.4121C124.854 30.082 125.002 30.8203 125.002 31.627C125.002 32.4382 124.854 33.1833 124.558 33.8623C124.261 34.5368 123.844 35.1178 123.307 35.6055C122.773 36.0931 122.131 36.4736 121.379 36.7471C120.627 37.016 119.798 37.1504 118.891 37.1504C117.979 37.1504 117.147 37.016 116.396 36.7471C115.648 36.4736 115.006 36.0931 114.468 35.6055C113.935 35.1178 113.52 34.5368 113.224 33.8623C112.927 33.1833 112.779 32.4382 112.779 31.627ZM114.946 31.627C114.946 32.1784 115.044 32.6751 115.24 33.1172C115.441 33.5592 115.716 33.9375 116.067 34.252C116.423 34.5618 116.84 34.8011 117.318 34.9697C117.801 35.1383 118.326 35.2227 118.891 35.2227C119.456 35.2227 119.978 35.1383 120.456 34.9697C120.939 34.8011 121.356 34.5618 121.707 34.252C122.058 33.9375 122.334 33.5592 122.534 33.1172C122.735 32.6751 122.835 32.1784 122.835 31.627C122.835 31.0755 122.735 30.5811 122.534 30.1436C122.334 29.7061 122.058 29.3369 121.707 29.0361C121.356 28.7308 120.939 28.4984 120.456 28.3389C119.978 28.1794 119.456 28.0996 118.891 28.0996C118.326 28.0996 117.801 28.1794 117.318 28.3389C116.84 28.4984 116.423 28.7308 116.067 29.0361C115.716 29.3369 115.441 29.7061 115.24 30.1436C115.044 30.5811 114.946 31.0755 114.946 31.627ZM127.395 26.3154H129.562L136.22 29.8018V26.3154H138.387V37H136.22V32.0986L129.562 28.6328V37H127.395V26.3154ZM141.408 26.3154H145.325C146.469 26.3154 147.463 26.4385 148.306 26.6846C149.149 26.9307 149.846 27.2839 150.397 27.7441C150.953 28.1999 151.366 28.7559 151.635 29.4121C151.908 30.0638 152.045 30.7975 152.045 31.6133C152.045 32.388 151.91 33.1058 151.642 33.7666C151.373 34.4229 150.963 34.9925 150.411 35.4756C149.86 35.9541 149.162 36.3301 148.319 36.6035C147.476 36.8724 146.483 37.0068 145.339 37.0068L141.408 37V26.3154ZM145.858 35.127C146.506 35.127 147.073 35.0449 147.561 34.8809C148.048 34.7122 148.454 34.4753 148.777 34.1699C149.105 33.8646 149.352 33.4954 149.516 33.0625C149.68 32.6296 149.762 32.1465 149.762 31.6133C149.762 31.0892 149.68 30.6175 149.516 30.1982C149.352 29.7744 149.105 29.4167 148.777 29.125C148.454 28.8288 148.048 28.6009 147.561 28.4414C147.073 28.2819 146.506 28.2021 145.858 28.2021H143.575V35.127H145.858ZM154.718 33.8213C155.105 34.04 155.497 34.2383 155.894 34.416C156.295 34.5892 156.709 34.7373 157.138 34.8604C157.566 34.9788 158.015 35.07 158.484 35.1338C158.958 35.1976 159.462 35.2295 159.995 35.2295C160.638 35.2295 161.185 35.1885 161.636 35.1064C162.087 35.0199 162.454 34.9036 162.736 34.7578C163.023 34.6074 163.231 34.4297 163.358 34.2246C163.491 34.0195 163.557 33.7962 163.557 33.5547C163.557 33.1673 163.395 32.862 163.071 32.6387C162.748 32.4108 162.249 32.2969 161.574 32.2969C161.278 32.2969 160.966 32.3174 160.638 32.3584C160.31 32.3949 159.977 32.4359 159.64 32.4814C159.307 32.527 158.977 32.5703 158.648 32.6113C158.325 32.6478 158.02 32.666 157.732 32.666C157.254 32.666 156.794 32.6045 156.352 32.4814C155.914 32.3584 155.524 32.1738 155.183 31.9277C154.845 31.6816 154.576 31.374 154.376 31.0049C154.175 30.6357 154.075 30.2051 154.075 29.7129C154.075 29.4212 154.114 29.1318 154.191 28.8447C154.273 28.5576 154.401 28.2842 154.574 28.0244C154.752 27.7601 154.98 27.5163 155.258 27.293C155.536 27.0651 155.871 26.8691 156.263 26.7051C156.659 26.541 157.115 26.4134 157.63 26.3223C158.149 26.2266 158.74 26.1787 159.4 26.1787C159.879 26.1787 160.36 26.2061 160.843 26.2607C161.326 26.3109 161.795 26.3838 162.251 26.4795C162.711 26.5752 163.153 26.6914 163.577 26.8281C164.001 26.9603 164.395 27.1084 164.76 27.2725L163.81 29.0225C163.509 28.8903 163.185 28.7695 162.839 28.6602C162.493 28.5462 162.13 28.4482 161.752 28.3662C161.374 28.2842 160.982 28.2204 160.576 28.1748C160.175 28.1247 159.765 28.0996 159.346 28.0996C158.749 28.0996 158.257 28.1429 157.869 28.2295C157.486 28.3161 157.181 28.4277 156.953 28.5645C156.725 28.6966 156.566 28.847 156.475 29.0156C156.388 29.1797 156.345 29.3438 156.345 29.5078C156.345 29.8268 156.488 30.0889 156.775 30.2939C157.062 30.4945 157.5 30.5947 158.088 30.5947C158.325 30.5947 158.596 30.5788 158.901 30.5469C159.211 30.5104 159.535 30.4717 159.872 30.4307C160.214 30.3896 160.56 30.3532 160.911 30.3213C161.267 30.2848 161.611 30.2666 161.943 30.2666C162.572 30.2666 163.128 30.3372 163.611 30.4785C164.099 30.6198 164.507 30.8226 164.835 31.0869C165.163 31.3467 165.411 31.6634 165.58 32.0371C165.749 32.4062 165.833 32.821 165.833 33.2812C165.833 33.8965 165.689 34.4456 165.402 34.9287C165.12 35.4072 164.714 35.8128 164.186 36.1455C163.661 36.4736 163.028 36.7243 162.285 36.8975C161.542 37.0661 160.715 37.1504 159.804 37.1504C159.202 37.1504 158.614 37.1117 158.04 37.0342C157.466 36.9613 156.914 36.8564 156.386 36.7197C155.862 36.5785 155.36 36.4121 154.882 36.2207C154.408 36.0247 153.968 35.8105 153.562 35.5781L154.718 33.8213Z" fill="#32725E"/>
</svg>
