<svg width="22" height="32" viewBox="0 0 22 32" fill="none" xmlns="http://www.w3.org/2000/svg">
<rect width="22" height="32" rx="5" fill="#F7F7F7"/>
<mask id="mask0_2501_1920" style="mask-type:alpha" maskUnits="userSpaceOnUse" x="-1" y="4" width="24" height="24">
<rect x="-1" y="4" width="24" height="24" fill="#D9D9D9"/>
</mask>
<g mask="url(#mask0_2501_1920)">
<path d="M11 23.2688C10.5875 23.2688 10.2344 23.122 9.94065 22.8282C9.6469 22.5345 9.50002 22.1814 9.50002 21.7689C9.50002 21.3564 9.6469 21.0033 9.94065 20.7095C10.2344 20.4158 10.5875 20.2689 11 20.2689C11.4125 20.2689 11.7656 20.4158 12.0594 20.7095C12.3531 21.0033 12.5 21.3564 12.5 21.7689C12.5 22.1814 12.3531 22.5345 12.0594 22.8282C11.7656 23.122 11.4125 23.2688 11 23.2688ZM11 17.4996C10.5875 17.4996 10.2344 17.3527 9.94065 17.059C9.6469 16.7652 9.50002 16.4121 9.50002 15.9996C9.50002 15.5872 9.6469 15.234 9.94065 14.9403C10.2344 14.6465 10.5875 14.4997 11 14.4997C11.4125 14.4997 11.7656 14.6465 12.0594 14.9403C12.3531 15.234 12.5 15.5872 12.5 15.9996C12.5 16.4121 12.3531 16.7652 12.0594 17.059C11.7656 17.3527 11.4125 17.4996 11 17.4996ZM11 11.7304C10.5875 11.7304 10.2344 11.5835 9.94065 11.2898C9.6469 10.996 9.50002 10.6429 9.50002 10.2304C9.50002 9.81794 9.6469 9.46482 9.94065 9.17107C10.2344 8.87734 10.5875 8.73047 11 8.73047C11.4125 8.73047 11.7656 8.87734 12.0594 9.17107C12.3531 9.46482 12.5 9.81794 12.5 10.2304C12.5 10.6429 12.3531 10.996 12.0594 11.2898C11.7656 11.5835 11.4125 11.7304 11 11.7304Z" fill="#696A78"/>
</g>
</svg>
