<svg width="24" height="24" viewBox="0 0 24 24" fill="none" xmlns="http://www.w3.org/2000/svg">
<mask id="mask0_2804_2535" style="mask-type:alpha" maskUnits="userSpaceOnUse" x="0" y="0" width="24" height="24">
<rect width="24" height="24" fill="#D9D9D9"/>
</mask>
<g mask="url(#mask0_2804_2535)">
<path d="M10.6005 16.5961L17.6505 9.54609L16.2505 8.14609L10.6005 13.7961L7.75049 10.9461L6.35049 12.3461L10.6005 16.5961ZM12.0005 21.9961C10.6172 21.9961 9.31716 21.7336 8.10049 21.2086C6.88382 20.6836 5.82549 19.9711 4.92549 19.0711C4.02549 18.1711 3.31299 17.1128 2.78799 15.8961C2.26299 14.6794 2.00049 13.3794 2.00049 11.9961C2.00049 10.6128 2.26299 9.31276 2.78799 8.09609C3.31299 6.87943 4.02549 5.82109 4.92549 4.92109C5.82549 4.02109 6.88382 3.30859 8.10049 2.78359C9.31716 2.25859 10.6172 1.99609 12.0005 1.99609C13.3838 1.99609 14.6838 2.25859 15.9005 2.78359C17.1172 3.30859 18.1755 4.02109 19.0755 4.92109C19.9755 5.82109 20.688 6.87943 21.213 8.09609C21.738 9.31276 22.0005 10.6128 22.0005 11.9961C22.0005 13.3794 21.738 14.6794 21.213 15.8961C20.688 17.1128 19.9755 18.1711 19.0755 19.0711C18.1755 19.9711 17.1172 20.6836 15.9005 21.2086C14.6838 21.7336 13.3838 21.9961 12.0005 21.9961Z" fill="#121329"/>
</g>
</svg>
