<svg width="60" height="60" viewBox="0 0 60 60" fill="none" xmlns="http://www.w3.org/2000/svg">
<circle cx="30" cy="30" r="29" fill="#ECEEEE" stroke="#696A78" stroke-width="2"/>
<path d="M36.871 14.1655C42.2385 14.1655 45.8327 17.9339 45.8327 23.5389V36.4763C45.8327 42.0654 42.2385 45.8322 36.871 45.8322H23.1435C17.776 45.8322 14.166 42.0654 14.166 36.4763V23.5389C14.166 17.9339 17.776 14.1655 23.1435 14.1655H36.871ZM34.7652 25.2029C34.2269 24.663 33.356 24.663 32.8019 25.2029L29.9994 28.0197L27.181 25.2029C26.6269 24.663 25.756 24.663 25.2177 25.2029C24.6794 25.7413 24.6794 26.6279 25.2177 27.1647L28.036 29.9846L25.2177 32.7871C24.6794 33.3413 24.6794 34.2121 25.2177 34.7489C25.4869 35.018 25.851 35.1621 26.1994 35.1621C26.5635 35.1621 26.9119 35.018 27.181 34.7489L29.9994 31.9479L32.8177 34.7489C33.0869 35.0354 33.4352 35.1621 33.7835 35.1621C34.1477 35.1621 34.496 35.018 34.7652 34.7489C35.3035 34.2121 35.3035 33.3413 34.7652 32.8029L31.9469 29.9846L34.7652 27.1647C35.3035 26.6279 35.3035 25.7413 34.7652 25.2029Z" fill="#9747FF"/>
</svg>
