<svg width="61" height="60" viewBox="0 0 61 60" fill="none" xmlns="http://www.w3.org/2000/svg">
<circle cx="30.5" cy="30" r="29" fill="#ECEEEE" stroke="#696A78" stroke-width="2"/>
<path d="M38.1149 15.625C40.1823 15.625 42.1711 16.4421 43.6341 17.9082C45.0987 19.3712 45.9173 21.3446 45.9173 23.4104V35.5896C45.9173 39.8908 42.4177 43.375 38.1149 43.375H22.8848C18.582 43.375 15.084 39.8908 15.084 35.5896V23.4104C15.084 19.1092 18.5666 15.625 22.8848 15.625H38.1149ZM39.8586 23.6417C39.5348 23.6247 39.2265 23.7342 38.9937 23.95L32.0423 29.5C31.1482 30.2415 29.867 30.2415 28.959 29.5L22.0215 23.95C21.542 23.5954 20.8791 23.6417 20.4798 24.0579C20.0636 24.4742 20.0173 25.1371 20.3704 25.5996L20.5723 25.8L27.5869 31.2729C28.4502 31.9512 29.497 32.3212 30.5932 32.3212C31.6862 32.3212 32.7515 31.9512 33.6133 31.2729L40.5677 25.7075L40.6911 25.5842C41.0595 25.1371 41.0595 24.4896 40.6741 24.0425C40.4598 23.8128 40.1654 23.6725 39.8586 23.6417Z" fill="#D26F50"/>
</svg>
