<svg width="60" height="60" viewBox="0 0 60 60" fill="none" xmlns="http://www.w3.org/2000/svg">
<circle cx="30" cy="30" r="29" fill="#ECEEEE" stroke="#696A78" stroke-width="2"/>
<path d="M36.985 13C42.1333 13 45 15.9667 45 21.05V38.2667C45 43.4333 42.1333 46.3333 36.985 46.3333H23.0167C17.95 46.3333 15 43.4333 15 38.2667V21.05C15 15.9667 17.95 13 23.0167 13H36.985ZM23.4667 35.9C22.9667 35.85 22.4833 36.0833 22.2167 36.5167C21.95 36.9333 21.95 37.4833 22.2167 37.9167C22.4833 38.3333 22.9667 38.5833 23.4667 38.5167H36.5333C37.1983 38.45 37.7 37.8817 37.7 37.2167C37.7 36.5333 37.1983 35.9667 36.5333 35.9H23.4667ZM36.5333 28.2983H23.4667C22.7483 28.2983 22.1667 28.8833 22.1667 29.6C22.1667 30.3167 22.7483 30.9 23.4667 30.9H36.5333C37.25 30.9 37.8333 30.3167 37.8333 29.6C37.8333 28.8833 37.25 28.2983 36.5333 28.2983ZM28.4483 20.75H23.4667V20.7667C22.7483 20.7667 22.1667 21.35 22.1667 22.0667C22.1667 22.7833 22.7483 23.3667 23.4667 23.3667H28.4483C29.1667 23.3667 29.75 22.7833 29.75 22.0483C29.75 21.3333 29.1667 20.75 28.4483 20.75Z" fill="#EC9252"/>
</svg>
