<svg width="24" height="27" viewBox="0 0 24 27" fill="none" xmlns="http://www.w3.org/2000/svg">
<path opacity="0.4" d="M17.588 0H6.41333C2.36 0 0 2.37333 0 6.44V20.2133C0 24.3467 2.36 26.6667 6.41333 26.6667H17.588C21.7067 26.6667 24 24.3467 24 20.2133V6.44C24 2.37333 21.7067 0 17.588 0Z" fill="#32725E"/>
<path d="M6.77337 18.3192H17.2267C17.7587 18.3726 18.16 18.8259 18.16 19.3726C18.16 19.9046 17.7587 20.3592 17.2267 20.4126H6.77337C6.37337 20.4659 5.98671 20.2659 5.77337 19.9326C5.56004 19.5859 5.56004 19.1459 5.77337 18.8126C5.98671 18.4659 6.37337 18.2792 6.77337 18.3192ZM17.2267 12.2379C17.8 12.2379 18.2667 12.7059 18.2667 13.2792C18.2667 13.8526 17.8 14.3192 17.2267 14.3192H6.77337C6.19871 14.3192 5.73337 13.8526 5.73337 13.2792C5.73337 12.7059 6.19871 12.2379 6.77337 12.2379H17.2267ZM10.7587 6.19922C11.3334 6.19922 11.8 6.66589 11.8 7.23789C11.8 7.82589 11.3334 8.29255 10.7587 8.29255H6.77337C6.19871 8.29255 5.73337 7.82589 5.73337 7.25255C5.73337 6.67922 6.19871 6.21255 6.77337 6.21255V6.19922H10.7587Z" fill="#32725E"/>
</svg>
